<svg width="80" height="80" viewBox="0 0 80 80" fill="none" xmlns="http://www.w3.org/2000/svg">
<path fill-rule="evenodd" clip-rule="evenodd" d="M53.1505 33.3938C53.3045 33.3938 53.5759 33.4396 53.5759 33.1415C53.5759 32.9065 53.4201 32.8764 53.2546 32.8764H52.919V33.3938H53.1505ZM53.7162 34.2076H53.536L53.1895 33.5333H52.9181V34.2076H52.7641V32.7508H53.2912C53.4068 32.7508 53.4961 32.7681 53.5874 32.8289C53.6644 32.8769 53.7153 33.0031 53.7153 33.1426C53.7153 33.4407 53.5479 33.5339 53.3554 33.5339L53.7162 34.2076ZM54.1021 33.4725C54.1011 33.1737 54.0031 32.8876 53.8296 32.6763C53.6561 32.465 53.4211 32.3457 53.1757 32.3444C52.661 32.3444 52.2259 32.8462 52.2259 33.4725C52.2259 34.1139 52.661 34.6296 53.1757 34.6296C53.6777 34.6291 54.1021 34.1139 54.1021 33.4725ZM52.1095 33.4725C52.1094 33.3026 52.1369 33.1343 52.1906 32.9775C52.2443 32.8206 52.323 32.6783 52.4222 32.5588C52.5214 32.4393 52.639 32.3449 52.7684 32.2812C52.8977 32.2175 53.0362 32.1856 53.1757 32.1876C53.7684 32.1876 54.2438 32.7681 54.2438 33.4725C54.2438 34.1926 53.7684 34.7859 53.1757 34.7859C52.572 34.7859 52.1095 34.1926 52.1095 33.4725ZM16.3527 45.4178C15.9824 45.4194 15.6155 45.3318 15.2732 45.16C14.9309 44.9882 14.6198 44.7356 14.358 44.4167C14.0962 44.0979 13.8888 43.7191 13.7478 43.3022C13.6068 42.8853 13.5349 42.4386 13.5363 41.9877C13.5361 41.5374 13.6089 41.0915 13.7504 40.6755C13.892 40.2595 14.0994 39.8816 14.361 39.5633C14.6226 39.2451 14.9332 38.9927 15.2749 38.8207C15.6166 38.6487 15.9829 38.5605 16.3527 38.561C16.7223 38.5608 17.0883 38.6492 17.4298 38.8214C17.7713 38.9935 18.0816 39.2459 18.3429 39.5642C18.6043 39.8824 18.8116 40.2603 18.9529 40.6761C19.0943 41.092 19.1669 41.5377 19.1668 41.9877C19.1683 42.4384 19.0965 42.885 18.9557 43.3018C18.8148 43.7185 18.6076 44.0972 18.3461 44.4161C18.0845 44.7349 17.7737 44.9876 17.4316 45.1595C17.0894 45.3314 16.7228 45.4192 16.3527 45.4178ZM5.78246 45.4178C4.22712 45.4178 2.98028 43.9001 2.98028 41.9877C2.98028 40.0938 4.22712 38.561 5.78246 38.561C7.33781 38.561 8.59886 40.0938 8.59886 41.9877C8.60013 42.4385 8.52815 42.8852 8.38707 43.3021C8.24599 43.7189 8.03859 44.0976 7.77682 44.4164C7.51504 44.7352 7.20406 44.9878 6.86179 45.1597C6.51951 45.3316 6.15269 45.4193 5.78246 45.4178ZM41.218 45.4178C39.6626 45.4178 38.4162 43.9001 38.4162 41.9877C38.4162 40.0938 39.6626 38.561 41.218 38.561C42.7605 38.561 44.022 40.0938 44.022 41.9877C44.0236 42.4374 43.9522 42.883 43.812 43.299C43.6718 43.715 43.4655 44.0932 43.205 44.4119C42.9445 44.7306 42.6348 44.9835 42.2939 45.1561C41.9529 45.3287 41.5872 45.4177 41.218 45.4178ZM30.5336 45.4178C30.1631 45.4205 29.7958 45.3337 29.4531 45.1623C29.1103 44.9909 28.7989 44.7383 28.537 44.4192C28.275 44.1002 28.0676 43.7209 27.9269 43.3036C27.7862 42.8862 27.7149 42.4389 27.7172 41.9877C27.7162 41.5371 27.7884 41.0907 27.9296 40.6742C28.0708 40.2577 28.2782 39.8794 28.54 39.5609C28.8018 39.2424 29.1127 38.9901 29.4548 38.8185C29.797 38.6469 30.1636 38.5594 30.5336 38.561C30.9034 38.5607 31.2695 38.6491 31.6112 38.8212C31.9528 38.9932 32.2633 39.2456 32.5249 39.5638C32.7864 39.882 32.9939 40.2599 33.1355 40.6758C33.2771 41.0917 33.35 41.5375 33.35 41.9877C33.3512 42.4385 33.2792 42.8852 33.1381 43.302C32.997 43.7188 32.7896 44.0974 32.5279 44.4162C32.2661 44.735 31.9551 44.9877 31.6129 45.1595C31.2706 45.3314 30.9039 45.4192 30.5336 45.4178ZM19.1814 46.7028C18.3629 47.4394 17.3709 47.8345 16.3531 47.8292C13.7031 47.8292 11.5564 45.2146 11.5564 41.9877C11.5564 38.7781 13.7031 36.1647 16.3531 36.1647C17.4065 36.1647 18.3834 36.5867 19.1672 37.2911V32.4856H21.2511V47.736H19.1814V46.7028ZM52.6367 39.8917C52.5202 38.935 51.8899 38.2478 50.8883 38.2478C50.3612 38.2478 49.217 38.4655 49.217 39.2956C49.217 40.5331 50.953 40.6419 51.3765 40.6743C54.1549 40.9874 54.9639 42.475 54.9639 44.2277C54.9639 45.5272 54.4239 46.4973 53.6534 47.1867C52.9979 47.7656 51.6479 48 50.8242 48C48.9979 48 47.1473 46.7809 46.9026 44.0229H48.9475C49.0612 45.3235 50.181 45.8085 50.8113 45.8085C51.9546 45.8085 52.765 45.2146 52.765 44.5253C52.765 43.4295 51.9298 43.194 50.7201 43.0382C50.0407 42.9445 48.7398 42.662 48.2007 42.1139C47.5975 41.535 47.0827 40.8764 47.0827 39.7499C47.0827 37.7298 48.3809 36.1334 50.9406 36.1161C53.0616 36.101 54.6687 37.6366 54.7187 39.8738L52.6367 39.8917ZM8.61123 46.7028C7.79278 47.44 6.80048 47.8351 5.78246 47.8292C3.12146 47.8292 1 45.2146 1 41.9877C1 38.7781 3.12146 36.1647 5.78246 36.1647C6.83769 36.1647 7.81454 36.5867 8.61123 37.2911V36.1803H10.6681V47.736H8.61123V46.7028ZM24.8243 35.3815V32.47H22.7546V35.3815H24.8243ZM24.8243 47.7354V36.1797H22.7546V47.7354H24.8243ZM44.022 46.7028C43.25 47.4223 42.2737 47.8292 41.218 47.8292C38.5698 47.8292 36.4231 45.2146 36.4231 41.9877C36.4231 38.7781 38.5698 36.1647 41.218 36.1647C42.2737 36.1647 43.2505 36.5867 44.022 37.2911V36.1803H46.1036V47.736H44.0472L44.022 46.7028ZM33.3624 46.7028C32.5785 47.4223 31.5893 47.8292 30.5336 47.8292C27.8979 47.8292 25.7388 45.2146 25.7388 41.9877C25.7388 38.7781 27.8979 36.1647 30.5336 36.1647C31.5893 36.1647 32.5662 36.5867 33.3624 37.2911V32.4856H35.4197V47.736H33.3624V46.7028ZM70.9593 40.6743C71.0748 37.9341 70.4051 34.9272 68.6045 32C66.8571 34.7402 66.241 37.856 66.3941 40.6743H70.9593ZM66.6636 42.849C66.5866 42.4404 66.5224 42.0283 66.4711 41.6137H70.8813C70.8309 42.0285 70.7667 42.4406 70.6888 42.849H66.6636ZM67.6923 45.9509C67.9755 46.5247 68.3025 47.0646 68.6691 47.5635C69.0299 47.0773 69.3512 46.5286 69.6478 45.9509H67.6923ZM77.838 40.6894C78.3518 39.3893 78.7126 37.9341 78.8785 36.3053C75.8838 36.619 73.5309 38.3868 71.948 40.6894H77.838ZM77.4392 41.6137C77.2333 42.0508 77.0138 42.4421 76.7837 42.849L70.7777 42.8183C70.9703 42.427 71.1637 41.9877 71.3828 41.6137H77.4392ZM75.0729 45.0109C75.4492 44.6368 75.8015 44.2283 76.1268 43.789L61.2119 43.7739C61.5478 44.2265 61.9131 44.6454 62.3043 45.0265L75.0729 45.0109ZM69.866 45.9509C69.7776 46.4711 69.7261 46.9996 69.712 47.5306C71.139 47.453 72.6173 46.9199 73.9549 45.9509H69.866ZM59.9013 41.6137C60.1191 42.0508 60.3382 42.4421 60.5834 42.849H66.5623C66.3941 42.427 66.1892 42.0207 65.9687 41.6137H59.9013ZM63.3975 45.9509C64.7351 46.9199 66.2015 47.453 67.6281 47.5306C67.612 47.0006 67.5649 46.4727 67.4874 45.9509H63.3975ZM65.3902 40.6894C63.8225 38.3868 61.4833 36.619 58.4863 36.3053C58.6385 37.8215 58.9813 39.3001 59.5025 40.6894H65.3902Z" fill="white"/>
</svg>
