<svg width="80" height="80" viewBox="0 0 80 80" fill="none" xmlns="http://www.w3.org/2000/svg">
<path d="M4.14551 51V32.5156H10.1885C12.1943 32.5156 13.7008 32.9303 14.708 33.7598C15.7236 34.5892 16.2314 35.8164 16.2314 37.4414C16.2314 38.3047 15.986 39.0706 15.4951 39.7393C15.0042 40.3994 14.3356 40.9115 13.4893 41.2754C14.488 41.5547 15.2751 42.0879 15.8506 42.875C16.4346 43.6536 16.7266 44.5846 16.7266 45.668C16.7266 47.3268 16.1891 48.6302 15.1143 49.5781C14.0394 50.526 12.5202 51 10.5566 51H4.14551ZM6.58301 42.3545V49.0068H10.6074C11.7415 49.0068 12.6344 48.7148 13.2861 48.1309C13.9463 47.5384 14.2764 46.7259 14.2764 45.6934C14.2764 43.4674 13.0661 42.3545 10.6455 42.3545H6.58301ZM6.58301 40.3994H10.2646C11.3311 40.3994 12.1816 40.1328 12.8164 39.5996C13.4596 39.0664 13.7812 38.3428 13.7812 37.4287C13.7812 36.4131 13.485 35.6768 12.8926 35.2197C12.3001 34.7542 11.3988 34.5215 10.1885 34.5215H6.58301V40.3994ZM29.493 42.4561H21.4822V49.0068H30.7879V51H19.0447V32.5156H30.6609V34.5215H21.4822V40.4629H29.493V42.4561ZM34.9723 49.0068H43.732V51H32.5221V32.5156H34.9723V49.0068ZM47.8275 51H45.39V32.5156H47.8275V51ZM61.4445 42.4561H53.4338V49.0068H62.7395V51H50.9963V32.5156H62.6125V34.5215H53.4338V40.4629H61.4445V42.4561ZM74.668 42.8369H66.9111V51H64.4736V32.5156H75.9248V34.5215H66.9111V40.8438H74.668V42.8369Z" fill="black"/>
</svg>
