<?xml version="1.0" encoding="utf-8"?>
<!-- Generator: Adobe Illustrator 24.1.0, SVG Export Plug-In . SVG Version: 6.00 Build 0)  -->
<svg version="1.1" xmlns="http://www.w3.org/2000/svg" xmlns:xlink="http://www.w3.org/1999/xlink" x="0px" y="0px"
	 viewBox="0 0 1000 1000" style="enable-background:new 0 0 1000 1000;" xml:space="preserve">
<style type="text/css">
	.st0{fill:#D6C2FF;}
	.st1{display:none;}
	.st2{display:inline;}
	.st3{fill:#9966FF;}
	.st4{fill:#F5F6F8;}
</style>
<g id="Слой_2">
	<rect x="-25.02" y="-19.55" class="st0" width="1044.4" height="1044.4"/>
</g>
<g id="Слой_1" class="st1">
	<g class="st2">
		<g>
			<g>
				<path class="st0" d="M143.26,352.92H410.2c324.62,0,500.93,52.13,500.93,144.8c0,93.11-176.31,147.47-494.34,147.47H143.26
					V352.92z M400.32,614.44c245.52,0,367.46-42.77,367.46-116.73c0-73.51-121.94-114.06-367.46-114.06H281.67v230.78H400.32z"/>
			</g>
		</g>
		<g>
			<g>
				<path class="st3" d="M100.29,463.5c0-9.78,7.04-16.62,15.84-16.62s15.84,6.84,15.84,16.62c0,9.97-7.04,16.62-15.84,16.62
					S100.29,473.47,100.29,463.5z M100.29,533.49c0-9.78,7.04-16.62,15.84-16.62s15.84,6.84,15.84,16.62
					c0,9.97-7.04,16.62-15.84,16.62S100.29,543.46,100.29,533.49z"/>
			</g>
		</g>
		<g>
			<g>
				<path class="st0" d="M594.29,497.2c0-39.16,45.32-62.95,95.25-62.95c53.77,0,85.26,22.55,85.26,56.51
					c0,4.71-0.77,9.17-1.54,12.39H615.41v-15.86h139.03l-8.06,5.7c0-28.5-21.89-42.63-56.07-42.63c-34.57,0-64.52,16.85-64.52,46.84
					c0,31.23,31.49,47.09,72.97,47.09c22.28,0,39.94-4.46,56.84-11.4l11.52,13.38c-18.44,7.93-42.25,14.37-72.2,14.37
					C638.84,560.64,594.29,537.35,594.29,497.2z"/>
			</g>
		</g>
		<g>
			<g>
				<path class="st3" d="M289.61,494.92c0-1.53,2.21-3.06,6.31-4.23v-0.16c-2.05-0.55-3.94-1.53-3.94-3.13
					c0-1.21,1.66-2.58,4.57-3.56v-0.16c-2.6-0.98-4.73-2.66-4.73-4.93c0-4.15,6.94-6.82,15.06-6.82c2.21,0,4.02,0.16,5.68,0.47
					h15.84v2.62h-9.93c1.73,0.9,3.23,2.31,3.23,3.84c0,4.07-6.54,6.54-14.82,6.54c-1.97,0-4.34-0.24-6.46-0.71
					c-1.89,0.59-3,1.29-3,2.19c0,1.49,2.92,2.19,7.96,2.19h8.59c9.85,0,14.58,1.25,14.58,4.47c0,3.56-8.28,6.66-21.28,6.66
					C296.08,500.21,289.61,498.29,289.61,494.92z M322.17,494.06c0-1.8-2.92-2.31-8.75-2.31h-7.49c-2.21,0-4.18-0.08-5.83-0.31
					c-3.63,0.98-4.89,2.08-4.89,3.17c0,2,4.34,3.25,12.53,3.25C316.65,497.86,322.17,496.02,322.17,494.06z M315.7,478.74
					c0-2.66-3.94-4.47-8.83-4.47c-4.81,0-8.83,1.8-8.83,4.47c0,2.74,4.02,4.5,8.83,4.5C311.76,483.25,315.7,481.48,315.7,478.74z"/>
				<path class="st3" d="M335.96,481.96c0-6.38,8.83-10.03,18.92-10.03s18.92,3.64,18.92,10.03c0,6.31-8.83,9.95-18.92,9.95
					S335.96,488.26,335.96,481.96z M367.1,481.96c0-4.39-4.89-7.33-12.22-7.33c-7.33,0-12.22,2.94-12.22,7.33
					c0,4.35,4.89,7.25,12.22,7.25C362.21,489.2,367.1,486.3,367.1,481.96z"/>
				<path class="st3" d="M289.53,522.5l3-2.15c4.41,1.57,9.62,2.58,16.63,2.58c6.46,0,9.62-1.33,9.62-2.94
					c0-1.45-1.5-2.47-11.9-3.53c-10.01-1.02-14.98-2.7-14.98-5.56c0-3.06,5.44-5.41,15.92-5.41c5.83,0,11.67,1.14,15.45,2.43
					l-3.15,2.08c-3.55-1.21-7.96-2-12.85-2c-6.46,0-8.83,1.29-8.83,2.74c0,1.65,3.31,2.35,11.19,3.17
					c12.69,1.37,15.77,2.94,15.77,5.88c0,3.09-6.07,5.68-17.03,5.68C300.89,525.47,294.19,524.1,289.53,522.5z"/>
				<path class="st3" d="M338.56,497.12h6.54v7.6l-0.39,4.5h0.24c3.86-2.12,8.36-3.72,14.27-3.72c9.07,0,13.24,2.66,13.24,7.68V525
					h-6.54v-11.4c0-3.6-2.52-5.29-8.75-5.29c-4.57,0-7.65,1.14-12.06,3.41V525h-6.54V497.12z"/>
			</g>
		</g>
		<path class="st0" d="M250.63,369.48"/>
	</g>
</g>
<g id="Слой_1__x28_копия_x29_">
	<g>
		<g>
			<path class="st4" d="M143.26,352.92H410.2c324.62,0,500.93,52.13,500.93,144.8c0,93.11-176.31,147.47-494.34,147.47H143.26
				V352.92z M400.32,614.44c245.52,0,367.46-42.77,367.46-116.73c0-73.51-121.94-114.06-367.46-114.06H281.67v230.78H400.32z"/>
		</g>
	</g>
	<g>
		<g>
			<path class="st3" d="M100.29,463.5c0-9.78,7.04-16.62,15.84-16.62s15.84,6.84,15.84,16.62c0,9.97-7.04,16.62-15.84,16.62
				S100.29,473.47,100.29,463.5z M100.29,533.49c0-9.78,7.04-16.62,15.84-16.62s15.84,6.84,15.84,16.62
				c0,9.97-7.04,16.62-15.84,16.62S100.29,543.46,100.29,533.49z"/>
		</g>
	</g>
	<g>
		<g>
			<path class="st4" d="M594.29,497.2c0-39.16,45.32-62.95,95.25-62.95c53.77,0,85.26,22.55,85.26,56.51
				c0,4.71-0.77,9.17-1.54,12.39H615.41v-15.86h139.03l-8.06,5.7c0-28.5-21.89-42.63-56.07-42.63c-34.57,0-64.52,16.85-64.52,46.84
				c0,31.23,31.49,47.09,72.97,47.09c22.28,0,39.94-4.46,56.84-11.4l11.52,13.38c-18.44,7.93-42.25,14.37-72.2,14.37
				C638.84,560.64,594.29,537.35,594.29,497.2z"/>
		</g>
	</g>
	<g>
		<g>
			<path class="st3" d="M289.61,494.92c0-1.53,2.21-3.06,6.31-4.23v-0.16c-2.05-0.55-3.94-1.53-3.94-3.13
				c0-1.21,1.66-2.58,4.57-3.56v-0.16c-2.6-0.98-4.73-2.66-4.73-4.93c0-4.15,6.94-6.82,15.06-6.82c2.21,0,4.02,0.16,5.68,0.47h15.84
				v2.62h-9.93c1.73,0.9,3.23,2.31,3.23,3.84c0,4.07-6.54,6.54-14.82,6.54c-1.97,0-4.34-0.24-6.46-0.71c-1.89,0.59-3,1.29-3,2.19
				c0,1.49,2.92,2.19,7.96,2.19h8.59c9.85,0,14.58,1.25,14.58,4.47c0,3.56-8.28,6.66-21.28,6.66
				C296.08,500.21,289.61,498.29,289.61,494.92z M322.17,494.06c0-1.8-2.92-2.31-8.75-2.31h-7.49c-2.21,0-4.18-0.08-5.83-0.31
				c-3.63,0.98-4.89,2.08-4.89,3.17c0,2,4.34,3.25,12.53,3.25C316.65,497.86,322.17,496.02,322.17,494.06z M315.7,478.74
				c0-2.66-3.94-4.47-8.83-4.47c-4.81,0-8.83,1.8-8.83,4.47c0,2.74,4.02,4.5,8.83,4.5C311.76,483.25,315.7,481.48,315.7,478.74z"/>
			<path class="st3" d="M335.96,481.96c0-6.38,8.83-10.03,18.92-10.03s18.92,3.64,18.92,10.03c0,6.31-8.83,9.95-18.92,9.95
				S335.96,488.26,335.96,481.96z M367.1,481.96c0-4.39-4.89-7.33-12.22-7.33c-7.33,0-12.22,2.94-12.22,7.33
				c0,4.35,4.89,7.25,12.22,7.25C362.21,489.2,367.1,486.3,367.1,481.96z"/>
			<path class="st3" d="M289.53,522.5l3-2.15c4.41,1.57,9.62,2.58,16.63,2.58c6.46,0,9.62-1.33,9.62-2.94c0-1.45-1.5-2.47-11.9-3.53
				c-10.01-1.02-14.98-2.7-14.98-5.56c0-3.06,5.44-5.41,15.92-5.41c5.83,0,11.67,1.14,15.45,2.43l-3.15,2.08
				c-3.55-1.21-7.96-2-12.85-2c-6.46,0-8.83,1.29-8.83,2.74c0,1.65,3.31,2.35,11.19,3.17c12.69,1.37,15.77,2.94,15.77,5.88
				c0,3.09-6.07,5.68-17.03,5.68C300.89,525.47,294.19,524.1,289.53,522.5z"/>
			<path class="st3" d="M338.56,497.12h6.54v7.6l-0.39,4.5h0.24c3.86-2.12,8.36-3.72,14.27-3.72c9.07,0,13.24,2.66,13.24,7.68V525
				h-6.54v-11.4c0-3.6-2.52-5.29-8.75-5.29c-4.57,0-7.65,1.14-12.06,3.41V525h-6.54V497.12z"/>
		</g>
	</g>
	<path class="st0" d="M250.63,369.48"/>
</g>
</svg>
