<svg width="80" height="80" viewBox="0 0 80 80" fill="none" xmlns="http://www.w3.org/2000/svg">
<rect y="25" width="80" height="30" fill="white"/>
<path d="M0 40V55H80V25H0V40ZM10.4 33.9687C10.4 36.1854 10.4267 38.0026 10.4711 38.0026C10.5156 38.0026 12.0889 36.1854 13.9911 33.9687L17.4489 29.9347H20.1956C21.6978 29.9347 22.9333 29.9504 22.9333 29.9739C22.9333 29.9974 21.4756 31.7128 19.6978 33.7885L16.4533 37.564L16.5956 37.799C16.6756 37.9321 18.3556 40.7285 20.3289 44.0183C22.3022 47.3081 23.9111 50.0104 23.9111 50.0261C23.9111 50.0418 22.7022 50.0574 21.2267 50.0496L18.5511 50.0261L15.8756 45.5065C14.4 43.0157 13.1733 40.9869 13.1467 41.0026C13.12 41.0183 12.48 41.6841 11.7511 42.5065L10.4089 43.9948L10.4 47.0261V50.0653H5.6V29.9347H10.4V33.9687ZM32.8 40V50.0653H28V29.9347H32.8V40ZM52.9778 31.7363V33.5379H47.1111V50.0653H42.3111V33.5379H36.5333V29.9347H52.9778V31.7363ZM61.6889 33.812V37.6893H69.6V29.9347H74.4V50.0653H69.5111V41.6057H61.6889V50.0653H56.8889V29.9347H61.6889V33.812Z" fill="black"/>
</svg>
