<svg width="80" height="80" viewBox="0 0 80 80" fill="none" xmlns="http://www.w3.org/2000/svg">
<g clip-path="url(#clip0)">
<path d="M36.266 45.974H39.139V40.03C39.139 36.89 37.136 35.223 34.726 35.223C33.131 35.223 31.926 35.915 31.058 36.873H30.668C30.013 36.021 28.879 35.223 27.196 35.223C25.669 35.223 24.449 35.897 23.811 36.678H23.421V35.525H20.745V45.974H23.6V40.51C23.6 38.646 24.15 38.008 26.063 38.008C27.976 38.008 28.507 38.646 28.507 40.51V45.973H31.381V40.51C31.381 38.646 31.912 38.008 33.826 38.008C35.741 38.008 36.271 38.646 36.271 40.51L36.267 45.973L36.266 45.974ZM9.3 44.478C8.787 44.106 8.556 43.556 8.556 42.723C8.556 41.676 8.876 40.386 9.407 39.831C9.779 39.458 10.31 39.281 11.037 39.281C12.065 39.281 13.323 39.551 13.854 40.097C14.209 40.452 14.369 40.948 14.369 41.64C14.369 42.634 14.085 44.035 13.464 44.62C13.11 44.94 12.632 45.081 11.959 45.081C11.039 45.081 9.883 44.867 9.3 44.478ZM13.82 46.678L13.695 47.636L16.369 47.966L17.636 37.613L14.963 37.284L14.838 38.288H14.529C14.129 37.579 13.057 36.62 11.037 36.62C8.22 36.62 6.147 38.696 5.774 41.533C5.73944 41.81 5.72174 42.0889 5.721 42.368C5.721 45.081 7.564 47.317 10.434 47.636C10.594 47.651 10.753 47.656 10.913 47.654C12.118 47.654 13.022 47.14 13.483 46.679H13.819L13.82 46.678ZM74.31 43.614C72.166 43.614 71.457 42.905 71.457 40.759C71.457 38.612 72.167 37.882 74.31 37.882C76.454 37.882 77.163 38.609 77.163 40.759C77.163 42.908 76.454 43.614 74.31 43.614ZM60.56 43.614C58.415 43.614 57.707 42.905 57.707 40.759C57.707 38.612 58.415 37.882 60.559 37.882C62.703 37.882 63.413 38.609 63.413 40.759C63.413 42.908 62.703 43.614 60.559 43.614H60.56ZM47.163 43.614C45.02 43.614 44.311 42.905 44.311 40.759C44.311 38.612 45.02 37.882 47.163 37.882C49.306 37.882 50.017 38.609 50.017 40.759C50.017 42.908 49.307 43.614 47.163 43.614ZM1.742 32L0 45.953L2.844 46.3L4.558 32.346L1.742 32ZM77.287 44.963V45.973H79.962V35.526H77.287V36.538H76.897C76.471 35.97 75.391 35.225 73.934 35.225C70.744 35.225 68.566 37.652 68.566 40.76C68.566 43.867 70.745 46.277 73.934 46.277C75.388 46.277 76.468 45.532 76.897 44.964H77.287V44.963ZM47.163 35.224C43.619 35.224 41.423 37.651 41.423 40.759C41.423 43.866 43.619 46.276 47.163 46.276C50.707 46.276 52.91 43.863 52.91 40.759C52.91 37.654 50.712 35.224 47.163 35.224ZM63.572 44.963V45.973H66.247V32.12H63.413V36.537H63.023C62.598 35.969 61.64 35.224 60.188 35.224C56.998 35.224 54.818 37.651 54.818 40.759C54.818 43.866 56.998 46.276 60.188 46.276C61.64 46.276 62.774 45.531 63.182 44.963H63.572Z" fill="black"/>
</g>
<defs>
<clipPath id="clip0">
<rect width="80" height="16" fill="white" transform="translate(0 32)"/>
</clipPath>
</defs>
</svg>
