<svg width="80" height="80" viewBox="0 0 80 80" fill="none" xmlns="http://www.w3.org/2000/svg">
<path d="M36.3438 45.974H39.1569V40.03C39.1569 36.89 37.1957 35.223 34.8359 35.223C33.2741 35.223 32.0942 35.915 31.2443 36.873H30.8624C30.2211 36.021 29.1107 35.223 27.4627 35.223C25.9676 35.223 24.773 35.897 24.1483 36.678H23.7664V35.525H21.1461V45.974H23.9417V40.51C23.9417 38.646 24.4802 38.008 26.3533 38.008C28.2265 38.008 28.7464 38.646 28.7464 40.51V45.973H31.5606V40.51C31.5606 38.646 32.0805 38.008 33.9546 38.008C35.8297 38.008 36.3487 38.646 36.3487 40.51L36.3448 45.973L36.3438 45.974ZM9.93958 44.478C9.43727 44.106 9.21108 43.556 9.21108 42.723C9.21108 41.676 9.52441 40.386 10.0443 39.831C10.4086 39.458 10.9285 39.281 11.6404 39.281C12.647 39.281 13.8788 39.551 14.3987 40.097C14.7463 40.452 14.903 40.948 14.903 41.64C14.903 42.634 14.6249 44.035 14.0168 44.62C13.6702 44.94 13.2022 45.081 12.5432 45.081C11.6423 45.081 10.5104 44.867 9.93958 44.478ZM14.3654 46.678L14.243 47.636L16.8613 47.966L18.1019 37.613L15.4846 37.284L15.3622 38.288H15.0596C14.668 37.579 13.6183 36.62 11.6404 36.62C8.88208 36.62 6.85227 38.696 6.48704 41.533C6.4532 41.81 6.43587 42.0889 6.43514 42.368C6.43514 45.081 8.23974 47.317 11.05 47.636C11.2066 47.651 11.3623 47.656 11.519 47.654C12.6989 47.654 13.584 47.14 14.0354 46.679H14.3644L14.3654 46.678ZM73.5952 43.614C71.4959 43.614 70.8016 42.905 70.8016 40.759C70.8016 38.612 71.4968 37.882 73.5952 37.882C75.6945 37.882 76.3888 38.609 76.3888 40.759C76.3888 42.908 75.6945 43.614 73.5952 43.614ZM60.1317 43.614C58.0313 43.614 57.3381 42.905 57.3381 40.759C57.3381 38.612 58.0313 37.882 60.1307 37.882C62.23 37.882 62.9252 38.609 62.9252 40.759C62.9252 42.908 62.23 43.614 60.1307 43.614H60.1317ZM47.0138 43.614C44.9154 43.614 44.2212 42.905 44.2212 40.759C44.2212 38.612 44.9154 37.882 47.0138 37.882C49.1121 37.882 49.8083 38.609 49.8083 40.759C49.8083 42.908 49.1131 43.614 47.0138 43.614ZM2.53904 32L0.833328 45.953L3.61808 46.3L5.29637 32.346L2.53904 32ZM76.5102 44.963V45.973H79.1294V35.526H76.5102V36.538H76.1283C75.7112 35.97 74.6537 35.225 73.227 35.225C70.1035 35.225 67.9709 37.652 67.9709 40.76C67.9709 43.867 70.1045 46.277 73.227 46.277C74.6507 46.277 75.7082 45.532 76.1283 44.964H76.5102V44.963ZM47.0138 35.224C43.5436 35.224 41.3933 37.651 41.3933 40.759C41.3933 43.866 43.5436 46.276 47.0138 46.276C50.4839 46.276 52.641 43.863 52.641 40.759C52.641 37.654 50.4888 35.224 47.0138 35.224ZM63.0809 44.963V45.973H65.7002V32.12H62.9252V36.537H62.5433C62.1272 35.969 61.1892 35.224 59.7674 35.224C56.6439 35.224 54.5093 37.651 54.5093 40.759C54.5093 43.866 56.6439 46.276 59.7674 46.276C61.1892 46.276 62.2995 45.531 62.699 44.963H63.0809V44.963Z" fill="white"/>
</svg>
