<svg width="18" height="22" viewBox="0 0 18 22" fill="none" xmlns="http://www.w3.org/2000/svg">
<path d="M15.75 7.33333H14.625V5.2381C14.625 2.34667 12.105 0 9 0C5.895 0 3.375 2.34667 3.375 5.2381V7.33333H2.25C1.0125 7.33333 0 8.27619 0 9.42857V19.9048C0 21.0571 1.0125 22 2.25 22H15.75C16.9875 22 18 21.0571 18 19.9048V9.42857C18 8.27619 16.9875 7.33333 15.75 7.33333ZM9 16.7619C7.7625 16.7619 6.75 15.819 6.75 14.6667C6.75 13.5143 7.7625 12.5714 9 12.5714C10.2375 12.5714 11.25 13.5143 11.25 14.6667C11.25 15.819 10.2375 16.7619 9 16.7619ZM12.4875 7.33333H5.5125V5.2381C5.5125 3.44667 7.07625 1.99048 9 1.99048C10.9237 1.99048 12.4875 3.44667 12.4875 5.2381V7.33333Z" fill="black" fill-opacity="0.75"/>
</svg>
