<svg width="272" height="101" viewBox="0 0 272 101" fill="none" xmlns="http://www.w3.org/2000/svg">
<path d="M5.58508 77V28.1H19.0851C22.6351 28.1 25.8601 28.575 28.7601 29.525C31.6601 30.475 34.1351 31.95 36.1851 33.95C38.2351 35.9 39.8101 38.4 40.9101 41.45C42.0601 44.5 42.6351 48.125 42.6351 52.325C42.6351 56.525 42.0851 60.175 40.9851 63.275C39.8851 66.375 38.3101 68.95 36.2601 71C34.2601 73 31.8601 74.5 29.0601 75.5C26.2601 76.5 23.1601 77 19.7601 77H5.58508ZM16.6851 68.075H18.4851C20.3851 68.075 22.1101 67.8 23.6601 67.25C25.2601 66.7 26.6101 65.825 27.7101 64.625C28.8601 63.375 29.7351 61.75 30.3351 59.75C30.9851 57.75 31.3101 55.275 31.3101 52.325C31.3101 49.425 30.9851 47 30.3351 45.05C29.7351 43.05 28.8601 41.475 27.7101 40.325C26.6101 39.125 25.2601 38.275 23.6601 37.775C22.1101 37.275 20.3851 37.025 18.4851 37.025H16.6851V68.075ZM52.2058 77V28.1H84.6058V37.4H63.3058V47.225H81.3808V56.45H63.3058V67.7H85.3558V77H52.2058ZM116.001 77.9C112.851 77.9 109.901 77.375 107.151 76.325C104.451 75.225 102.076 73.625 100.026 71.525C98.0265 69.425 96.4515 66.825 95.3015 63.725C94.1515 60.575 93.5765 56.95 93.5765 52.85C93.5765 48.75 94.1515 45.125 95.3015 41.975C96.5015 38.775 98.1015 36.1 100.101 33.95C102.151 31.75 104.551 30.075 107.301 28.925C110.051 27.775 113.001 27.2 116.151 27.2C119.451 27.2 122.251 27.85 124.551 29.15C126.901 30.4 128.876 31.825 130.476 33.425L124.401 40.25C123.351 39.2 122.201 38.35 120.951 37.7C119.701 37.05 118.101 36.725 116.151 36.725C114.551 36.725 113.076 37.1 111.726 37.85C110.376 38.55 109.201 39.575 108.201 40.925C107.201 42.275 106.401 43.925 105.801 45.875C105.251 47.825 104.976 50.025 104.976 52.475C104.976 57.525 105.926 61.45 107.826 64.25C109.776 67 112.701 68.375 116.601 68.375C117.551 68.375 118.451 68.25 119.301 68C120.151 67.75 120.851 67.375 121.401 66.875V58.475H114.276V49.475H131.301V71.975C129.651 73.525 127.476 74.9 124.776 76.1C122.076 77.3 119.151 77.9 116.001 77.9ZM157.747 77.9C154.847 77.9 152.172 77.35 149.722 76.25C147.322 75.15 145.247 73.525 143.497 71.375C141.797 69.225 140.472 66.575 139.522 63.425C138.572 60.225 138.097 56.525 138.097 52.325C138.097 48.225 138.572 44.625 139.522 41.525C140.472 38.375 141.797 35.75 143.497 33.65C145.247 31.5 147.322 29.9 149.722 28.85C152.172 27.75 154.847 27.2 157.747 27.2C160.647 27.2 163.297 27.75 165.697 28.85C168.147 29.9 170.222 31.5 171.922 33.65C173.672 35.75 175.022 38.375 175.972 41.525C176.922 44.625 177.397 48.225 177.397 52.325C177.397 56.525 176.922 60.225 175.972 63.425C175.022 66.575 173.672 69.225 171.922 71.375C170.222 73.525 168.147 75.15 165.697 76.25C163.297 77.35 160.647 77.9 157.747 77.9ZM157.747 68.375C160.297 68.375 162.322 67.025 163.822 64.325C165.322 61.625 166.072 57.625 166.072 52.325C166.072 47.225 165.322 43.35 163.822 40.7C162.322 38.05 160.297 36.725 157.747 36.725C155.197 36.725 153.172 38.05 151.672 40.7C150.172 43.35 149.422 47.225 149.422 52.325C149.422 57.625 150.172 61.625 151.672 64.325C153.172 67.025 155.197 68.375 157.747 68.375ZM202.568 77.9C199.268 77.9 195.993 77.325 192.743 76.175C189.543 74.975 186.618 73.2 183.968 70.85L190.343 63.275C192.193 64.775 194.218 66 196.418 66.95C198.618 67.9 200.918 68.375 203.318 68.375C205.718 68.375 207.468 67.975 208.568 67.175C209.668 66.375 210.218 65.35 210.218 64.1C210.218 63.25 210.043 62.55 209.693 62C209.343 61.4 208.843 60.875 208.193 60.425C207.543 59.975 206.743 59.55 205.793 59.15C204.843 58.75 203.793 58.3 202.643 57.8L196.343 55.1C194.993 54.6 193.668 53.95 192.368 53.15C191.118 52.35 190.018 51.425 189.068 50.375C188.118 49.275 187.343 48.025 186.743 46.625C186.193 45.175 185.918 43.55 185.918 41.75C185.918 39.75 186.343 37.875 187.193 36.125C188.093 34.325 189.318 32.775 190.868 31.475C192.468 30.125 194.368 29.075 196.568 28.325C198.768 27.575 201.193 27.2 203.843 27.2C206.843 27.2 209.743 27.75 212.543 28.85C215.343 29.95 217.868 31.55 220.118 33.65L214.493 40.625C212.793 39.375 211.093 38.425 209.393 37.775C207.693 37.075 205.643 36.725 203.243 36.725C201.393 36.725 199.893 37.1 198.743 37.85C197.643 38.6 197.093 39.7 197.093 41.15C197.093 42.6 197.818 43.725 199.268 44.525C200.768 45.275 202.718 46.075 205.118 46.925L211.043 49.475C214.293 50.675 216.843 52.325 218.693 54.425C220.593 56.525 221.543 59.3 221.543 62.75C221.543 64.8 221.118 66.75 220.268 68.6C219.418 70.4 218.193 72 216.593 73.4C214.993 74.75 213.018 75.85 210.668 76.7C208.318 77.5 205.618 77.9 202.568 77.9ZM229.989 77V28.1H241.014V46.925H254.364V28.1H265.389V77H254.364V56.6H241.014V77H229.989Z" fill="#121212"/>
</svg>
