<svg width="80" height="80" viewBox="0 0 80 80" fill="none" xmlns="http://www.w3.org/2000/svg">
<g clip-path="url(#clip0)">
<path d="M0 50H4.98661L6.4198 39.7434L10.5568 50H14.9303L17.8484 30H12.8618L11.4064 40.2296L7.17333 30H2.91809L0 50ZM15.477 50H21.4461L22.2957 47.5687H26.5731L26.7578 50H32.1655L29.6463 30H23.788L15.477 50ZM25.7974 37.5642H25.8417L26.2407 42.9401H23.9136L25.7974 37.5642ZM32.7565 50H38.0977L38.733 45.7136L41.3926 42.3728L43.04 50H48.4034L45.4409 37.285L51.2697 30H45.2045L40.0111 36.9968L41.0232 30H35.682L32.7565 50ZM49.312 50H61.8487L62.6466 44.543H55.4068L55.7614 42.2017H61.9965L62.6983 37.5462H56.441L56.7735 35.457H63.8951L64.693 30H52.2301L49.312 50ZM63.1416 50H69.2068C76.5648 50 80 45.2544 80 38.7708C80 32.7105 76.8012 30 71.9106 30H66.0523L63.1416 50ZM69.1846 45.0293L70.6695 34.9707H71.918C73.6615 34.9707 74.5775 36.1954 74.5775 38.7708C74.5775 42.0306 73.004 45.0293 70.507 45.0293H69.1846Z" fill="black"/>
</g>
<defs>
<clipPath id="clip0">
<rect width="80" height="20" fill="white" transform="translate(0 30)"/>
</clipPath>
</defs>
</svg>
