<svg width="80" height="80" viewBox="0 0 80 80" fill="none" xmlns="http://www.w3.org/2000/svg">
<path d="M59.4523 24.0152C59.4115 23.7602 59.1517 23.619 58.937 23.6035C58.7227 23.5881 54.1878 23.2991 54.1878 23.2991C54.1878 23.2991 51.0383 20.6102 50.6926 20.3126C50.3467 20.0152 49.6712 20.1056 49.409 20.172C49.3704 20.1818 48.7208 20.3542 47.6464 20.6401C46.5943 18.0366 44.7376 15.6442 41.471 15.6442C41.3808 15.6442 41.288 15.6473 41.1952 15.6519C40.2662 14.5954 39.1154 14.1364 38.1214 14.1364C30.5121 14.1364 26.8767 22.3164 25.7369 26.4733C22.7801 27.2612 20.6796 27.8213 20.4113 27.8938C18.7609 28.339 18.7087 28.3837 18.4919 29.721C18.3289 30.7335 14.0104 59.4523 14.0104 59.4523L47.6604 64.874L65.8931 61.4822C65.8931 61.4822 59.4927 24.2702 59.4525 24.0152H59.4523ZM45.7866 21.1347L42.9393 21.8925C42.9403 21.72 42.9413 21.5502 42.9413 21.3646C42.9413 19.7465 42.6801 18.4438 42.2611 17.411C43.9442 17.5927 45.0652 19.2395 45.7866 21.1347ZM40.1732 17.7319C40.6411 18.7402 40.9454 20.1872 40.9454 22.1399C40.9454 22.2398 40.9444 22.3311 40.9433 22.4235C39.0916 22.9167 37.0795 23.4522 35.0629 23.9895C36.1952 20.2316 38.3176 18.4165 40.1732 17.7319V17.7319ZM37.9124 15.8915C38.2408 15.8915 38.5717 15.9874 38.8883 16.1748C36.4497 17.1616 33.8357 19.647 32.7318 24.6102L28.0836 25.8482C29.3765 22.0625 32.4467 15.8915 37.9122 15.8915H37.9124Z" fill="#95BF46"/>
<path d="M58.9369 23.6032C58.7226 23.5878 54.1877 23.2988 54.1877 23.2988C54.1877 23.2988 51.0381 20.6099 50.6925 20.3123C50.5631 20.2016 50.3886 20.1448 50.2062 20.1204L47.6619 64.8734L65.893 61.4819C65.893 61.4819 59.4924 24.2699 59.4521 24.0149C59.4113 23.7599 59.1516 23.6188 58.9369 23.6032" fill="#5E8E3E"/>
<path d="M41.4709 32.2666L39.2227 38.0173C39.2227 38.0173 37.253 37.1133 34.8385 37.1133C31.2988 37.1133 31.1207 39.0235 31.1207 39.5049C31.1207 42.1314 39.0824 43.1378 39.0824 49.2899C39.0824 54.1302 35.5124 57.247 30.6988 57.247C24.9225 57.247 21.9686 54.1555 21.9686 54.1555L23.5152 49.7611C23.5152 49.7611 26.5516 52.0029 29.1138 52.0029C30.788 52.0029 31.469 50.8693 31.469 50.0411C31.469 46.615 24.9371 46.4622 24.9371 40.8325C24.9371 36.0942 28.892 31.5089 36.8752 31.5089C39.9512 31.5089 41.4709 32.2666 41.4709 32.2666" fill="white"/>
</svg>
