<svg width="80" height="80" viewBox="0 0 80 80" fill="none" xmlns="http://www.w3.org/2000/svg">
<path d="M56.5058 67H12.6732V56.665H58.4629V52.5574H56.5058C50.3929 52.5574 46.541 51.4975 41.2844 47.6548L33.3976 41.8254C30.1575 39.4406 27.651 38.7777 23.4942 38.7777C16.2805 38.7777 12 35.2 12 26.3894C12 17.5777 16.2805 14 23.4942 14H67.3268V24.335H21.5371V28.4426H23.4942C29.6071 28.4426 33.3976 29.436 38.7165 33.3452L46.6628 39.1757C49.9643 41.6259 52.2877 42.2223 56.5058 42.2223C63.7195 42.2223 68 45.8 68 54.6117C68 63.4223 63.7195 67 56.5058 67Z" fill="#2B2B2A" stroke="#2B2B2A" stroke-width="1.33333" stroke-miterlimit="10"/>
</svg>
