<svg width="80" height="80" viewBox="0 0 80 80" fill="none" xmlns="http://www.w3.org/2000/svg">
<path d="M24.3949 39.4H19.0601V37.2H25.776V35H19.0478C18.5805 35 18.1323 35.2302 17.802 35.6399C17.4715 36.0496 17.2859 36.6053 17.2859 37.1847V39.4153C17.2859 39.9947 17.4715 40.5504 17.802 40.9601C18.1323 41.3698 18.5805 41.6 19.0478 41.6H24.3826V43.8H17.4128V46H24.3949C24.8622 46 25.3103 45.7698 25.6408 45.3601C25.9711 44.9504 26.1568 44.3947 26.1568 43.8153V41.5847C26.1568 41.0053 25.9711 40.4496 25.6408 40.0399C25.3103 39.6302 24.8622 39.4 24.3949 39.4Z" fill="black"/>
<path d="M34.7257 35H29.3712C29.1399 35 28.9109 35.0565 28.6972 35.1663C28.4835 35.2761 28.2894 35.4371 28.1258 35.64C27.9623 35.8429 27.8327 36.0837 27.7443 36.3488C27.6558 36.6138 27.6105 36.8979 27.6106 37.1847V43.8153C27.6105 44.1021 27.6558 44.3862 27.7443 44.6512C27.8327 44.9163 27.9623 45.1571 28.1258 45.36C28.2894 45.5629 28.4835 45.7239 28.6972 45.8337C28.9109 45.9435 29.1399 46 29.3712 46H34.7257C35.193 46 35.6412 45.7698 35.9715 45.3601C36.302 44.9504 36.4876 44.3947 36.4876 43.8153V37.1847C36.4876 36.6053 36.302 36.0496 35.9715 35.6399C35.6412 35.2302 35.193 35 34.7257 35ZM34.7135 43.8H29.3909V37.2H34.7135V43.8Z" fill="black"/>
<path d="M53.4655 35H48.244C47.7768 35 47.3286 35.2302 46.9982 35.6399C46.6678 36.0496 46.4822 36.6053 46.4822 37.1847V46H48.2563V42.3853H53.4532V46H55.2274V37.1847C55.2275 36.8978 55.1821 36.6136 55.0936 36.3484C55.0051 36.0833 54.8753 35.8424 54.7117 35.6394C54.5481 35.4365 54.3538 35.2756 54.1399 35.1659C53.9261 35.0562 53.697 34.9998 53.4655 35ZM53.4532 40.1853H48.2563V37.2H53.4532V40.1853Z" fill="black"/>
<path d="M74.2381 35H69.0179C68.7862 34.9994 68.5567 35.0555 68.3425 35.165C68.1283 35.2745 67.9337 35.4353 67.7697 35.6383C67.6057 35.8412 67.4755 36.0822 67.3868 36.3476C67.298 36.613 67.2523 36.8974 67.2523 37.1847V46H69.0265V42.3853H74.2258V46H76V37.1847C76 36.6053 75.8144 36.0496 75.484 35.6399C75.1536 35.2302 74.7054 35 74.2381 35ZM74.2258 40.1853H69.0302V37.2H74.2258V40.1853Z" fill="black"/>
<path d="M63.9023 43.8H63.1927L60.6497 35.9167C60.5627 35.6462 60.4123 35.4143 60.218 35.2509C60.0235 35.0874 59.7941 35.0001 59.5593 35H57.9798C57.6684 35 57.3698 35.1534 57.1496 35.4264C56.9294 35.6995 56.8056 36.0698 56.8056 36.456V46H58.5798V37.2H59.2895L61.8313 45.0833C61.9178 45.3538 62.068 45.5858 62.2622 45.7492C62.4564 45.9127 62.6856 46 62.9203 46H64.4999C64.8113 46 65.11 45.8466 65.3302 45.5736C65.5504 45.3005 65.674 44.9302 65.674 44.544V35H63.8998L63.9023 43.8Z" fill="black"/>
<path d="M39.8339 35H38.0597V43.8153C38.0597 44.3947 38.2454 44.9504 38.5758 45.3601C38.9062 45.7698 39.3543 46 39.8216 46H45.1564V43.8H39.8339V35Z" fill="black"/>
<path fill-rule="evenodd" clip-rule="evenodd" d="M4.69293 43.3875C4.72443 43.3452 4.76249 43.3112 4.80483 43.2876C4.84717 43.264 4.89292 43.2512 4.93934 43.25H12.6816C12.7144 43.2506 12.7463 43.2629 12.7736 43.2854C12.8008 43.3079 12.8223 43.3398 12.8353 43.3771C12.8483 43.4143 12.8524 43.4555 12.8469 43.4956C12.8416 43.5356 12.827 43.5729 12.8049 43.6029L11.1637 45.8625C11.1322 45.9048 11.0942 45.9388 11.0518 45.9624C11.0095 45.986 10.9638 45.9988 10.9173 46H3.17009C3.13734 45.9994 3.10541 45.9871 3.07815 45.9646C3.0509 45.9421 3.02947 45.9102 3.01646 45.8729C3.00344 45.8357 2.99939 45.7945 3.00479 45.7544C3.01019 45.7144 3.02481 45.6771 3.04689 45.6471L4.69293 43.3875ZM12.8123 41.5144C12.8344 41.5444 12.849 41.5817 12.8543 41.6218C12.8598 41.6619 12.8557 41.703 12.8427 41.7403C12.8296 41.7776 12.8082 41.8094 12.7809 41.832C12.7537 41.8545 12.7218 41.8668 12.689 41.8674L4.94427 41.875C4.89785 41.8738 4.85209 41.861 4.80975 41.8374C4.76741 41.8138 4.72935 41.7798 4.69786 41.7375L3.04442 39.4856C3.02234 39.4556 3.00772 39.4183 3.00232 39.3782C2.99693 39.3381 3.00098 39.297 3.01399 39.2597C3.02701 39.2224 3.04843 39.1906 3.07569 39.168C3.10294 39.1455 3.13487 39.1332 3.16763 39.1326L10.9124 39.125C10.9588 39.1262 11.0046 39.139 11.0469 39.1626C11.0893 39.1862 11.1273 39.2202 11.1588 39.2625L12.8123 41.5144ZM4.69293 35.1375C4.72443 35.0952 4.76249 35.0612 4.80483 35.0376C4.84717 35.014 4.89292 35.0012 4.93934 35L12.6866 35.0076C12.7193 35.0082 12.7513 35.0205 12.7785 35.043C12.8058 35.0656 12.8272 35.0974 12.8402 35.1347C12.8532 35.172 12.8573 35.2131 12.8519 35.2532C12.8465 35.2933 12.8319 35.3305 12.8098 35.3606L11.1637 37.6125C11.1322 37.6548 11.0942 37.6888 11.0518 37.7124C11.0095 37.736 10.9638 37.7488 10.9173 37.75H3.17009C3.13734 37.7494 3.10541 37.7371 3.07815 37.7146C3.0509 37.6921 3.02947 37.6602 3.01646 37.6229C3.00344 37.5857 2.99939 37.5445 3.00479 37.5044C3.01019 37.4644 3.02481 37.4271 3.04689 37.3971L4.69293 35.1375Z" fill="black"/>
</svg>
