<svg width="80" height="80" viewBox="0 0 80 80" fill="none" xmlns="http://www.w3.org/2000/svg">
<g clip-path="url(#clip0)">
<path d="M78.5286 46.6395C78.3875 46.457 78.3069 46.3409 78.2666 46.2911C78.2263 46.2413 78.1255 46.1915 78.0247 46.1583C78.2464 46.1252 78.4077 46.0588 78.5084 45.9592C78.6092 45.8597 78.6697 45.7435 78.6697 45.5776C78.6697 45.4283 78.6092 45.2789 78.4883 45.1794C78.3472 45.0632 78.1456 45.0134 77.8634 45.0134H76.7145V47.0212H77.1983V46.1915H77.3394C77.5006 46.1915 77.6014 46.2413 77.7022 46.3077C77.7828 46.374 77.9038 46.5068 78.0247 46.7059L78.2263 47.0212H78.8309L78.5286 46.6395ZM77.5813 45.926H77.1781V45.3785H77.6417C77.803 45.3785 77.9239 45.4117 78.0045 45.4448C78.0852 45.4946 78.1255 45.561 78.1255 45.644C78.1255 45.7435 78.065 45.8099 77.9844 45.8597C77.9441 45.8929 77.7828 45.926 77.5813 45.926Z" fill="black"/>
<path d="M16.7699 44.5985C16.7699 45.1295 16.7095 45.4613 16.6288 45.6107C16.5482 45.76 16.3668 45.843 16.1048 45.843C15.8428 45.843 15.6613 45.76 15.5807 45.5775C15.5001 45.4115 15.4396 45.0299 15.4396 44.4657V39.0233C15.4396 38.3927 15.5001 38.0111 15.5807 37.8452C15.6613 37.6792 15.8428 37.6129 16.1249 37.6129C16.387 37.6129 16.5684 37.6958 16.649 37.8452C16.7296 38.0111 16.7699 38.4093 16.7699 39.0233V44.5985ZM21.2648 39.9193C21.2648 39.0565 21.2043 38.4259 21.0431 37.9945C20.8818 37.5797 20.6399 37.1649 20.2368 36.7666C19.8538 36.3684 19.2895 36.0531 18.5638 35.8042C17.8382 35.5554 16.9715 35.4226 15.9637 35.4226C14.7543 35.4226 13.7868 35.6217 13.0209 35.9868C12.2549 36.385 11.7107 36.8828 11.4285 37.5133C11.1464 38.1438 10.9851 39.0233 10.9851 40.1516V43.2545C10.9851 44.2832 11.0657 45.0465 11.227 45.5609C11.3882 46.0753 11.6704 46.5067 12.0332 46.8717C12.4162 47.2368 12.9403 47.5023 13.6457 47.6848C14.331 47.8673 15.1776 47.9503 16.1653 47.9503C17.0521 47.9503 17.8382 47.8341 18.5235 47.635C19.2088 47.4193 19.7732 47.104 20.1965 46.656C20.6399 46.208 20.9221 45.7434 21.0431 45.229C21.1841 44.7312 21.2446 43.9182 21.2446 42.8396L21.2648 39.9193Z" fill="black"/>
<path d="M27.4124 33H22.8168V47.7843H27.4124V33Z" fill="black"/>
<path d="M58.4127 44.5985C58.4127 45.1295 58.3522 45.4613 58.2716 45.6107C58.191 45.76 58.0096 45.843 57.7476 45.843C57.4855 45.843 57.3041 45.76 57.2235 45.5775C57.1429 45.4115 57.0824 45.0299 57.0824 44.4657V39.0233C57.0824 38.3927 57.1429 38.0111 57.2235 37.8452C57.3041 37.6792 57.4855 37.6129 57.7677 37.6129C58.0297 37.6129 58.2112 37.6958 58.2918 37.8452C58.3724 38.0111 58.4127 38.4093 58.4127 39.0233V44.5985ZM62.8874 39.9193C62.8874 39.0565 62.8269 38.4259 62.6657 37.9945C62.5044 37.5797 62.2626 37.1649 61.8594 36.7666C61.4765 36.3684 60.9121 36.0531 60.1865 35.8042C59.4608 35.5554 58.5941 35.4226 57.5863 35.4226C56.3769 35.4226 55.4094 35.6217 54.6435 35.9868C53.8776 36.385 53.3334 36.8828 53.0512 37.5133C52.769 38.1438 52.6077 39.0233 52.6077 40.1516V43.2545C52.6077 44.2832 52.6884 45.0465 52.8496 45.5609C53.0109 46.0753 53.293 46.5067 53.6559 46.8717C54.0388 47.2368 54.5629 47.5023 55.2683 47.6848C55.9738 47.8673 56.8002 47.9503 57.7879 47.9503C58.6747 47.9503 59.4608 47.8341 60.1461 47.635C60.8315 47.4193 61.3958 47.104 61.8191 46.656C62.2626 46.208 62.5447 45.7434 62.6657 45.229C62.8068 44.7312 62.8672 43.9182 62.8672 42.8396L62.8874 39.9193Z" fill="black"/>
<path d="M9.81608 44.2003C9.81608 43.3208 9.61451 42.6405 9.21139 42.1759C8.80826 41.7113 7.9617 41.2135 6.65155 40.6991C5.6639 40.3009 5.0189 40.0022 4.71655 39.7865C4.39405 39.5708 4.21265 39.3883 4.15218 39.2224C4.09171 39.0564 4.0514 38.7744 4.0514 38.3927C4.0514 38.1107 4.11187 37.9115 4.2328 37.7788C4.35374 37.646 4.53515 37.5631 4.79718 37.5631C5.09952 37.5631 5.30108 37.6295 5.38171 37.7788C5.46233 37.9281 5.50265 38.2766 5.50265 38.8573V39.5045H9.47342V38.791C9.47342 38.177 9.43311 37.729 9.35248 37.4469C9.27186 37.1483 9.05014 36.8496 8.68733 36.5177C8.32452 36.1859 7.7803 35.9204 7.11514 35.7047C6.42983 35.489 5.60343 35.406 4.63593 35.406C3.66843 35.406 2.78156 35.5387 2.03578 35.7876C1.29 36.0365 0.765936 36.385 0.463593 36.8496C0.16125 37.3308 0 38.0443 0 39.0233C0 39.7036 0.16125 40.2843 0.443437 40.7987C0.725624 41.2965 1.53187 41.8441 2.84203 42.458C4.39405 43.1881 5.28093 43.6195 5.44218 43.7522C5.60343 43.885 5.68405 44.25 5.68405 44.8474C5.68405 45.2622 5.62358 45.5443 5.50265 45.677C5.38171 45.8098 5.15999 45.8761 4.83749 45.8761C4.5553 45.8761 4.35374 45.7766 4.25296 45.5775C4.15218 45.3784 4.09171 44.9635 4.09171 44.3164V43.5531H0.120937V44.1339C0.120937 45.1295 0.282187 45.9093 0.58453 46.3905C0.886873 46.8883 1.45125 47.2865 2.2575 47.5686C3.06374 47.8673 4.03124 48 5.18015 48C6.20811 48 7.09499 47.8673 7.82061 47.6018C8.54623 47.3363 9.0703 46.9547 9.37264 46.4403C9.67498 45.9259 9.81608 45.1958 9.81608 44.2003Z" fill="black"/>
<path d="M46.7019 44.2168C46.7019 44.9469 46.6415 45.3949 46.5608 45.5774C46.4802 45.7765 46.2988 45.8595 45.9965 45.8595C45.7344 45.8595 45.5329 45.76 45.4321 45.5774C45.3515 45.3949 45.291 44.9801 45.291 44.3164V39.1228C45.291 38.4591 45.3313 38.0277 45.4119 37.8617C45.4926 37.6958 45.674 37.6128 45.9562 37.6128C46.2383 37.6128 46.4399 37.7124 46.5407 37.9115C46.6415 38.1106 46.7019 38.5088 46.7019 39.1394V44.2168ZM51.1766 38.9569C51.1766 38.0608 51.1565 37.4801 51.1162 37.198C51.0557 36.9159 50.9347 36.6338 50.6929 36.3684C50.451 36.0697 50.1083 35.8706 49.6649 35.7046C49.2013 35.5553 48.6772 35.4723 48.0726 35.4723C47.5485 35.4723 47.0446 35.5553 46.581 35.7378C46.1174 35.9038 45.7143 36.1692 45.3515 36.5343V33H40.8566V47.7843H45.0491L45.3313 46.8717C45.6941 47.2533 46.1174 47.5188 46.581 47.7179C47.0446 47.917 47.5283 48 48.0524 48C48.778 48 49.423 47.8507 49.9471 47.5188C50.4712 47.2035 50.8138 46.8219 50.9549 46.3905C51.096 45.9591 51.1766 45.2954 51.1766 44.4159V38.9569Z" fill="black"/>
<path d="M77.7224 47.5685C77.2185 47.5685 76.7952 47.4192 76.4122 47.1205C76.0494 46.8219 75.868 46.4734 75.868 46.042C75.868 45.6438 76.0293 45.2953 76.3921 44.98C76.7549 44.6814 77.1782 44.5154 77.7627 44.5154C78.0247 44.5154 78.2868 44.5652 78.5689 44.698C78.8511 44.8307 79.093 44.9966 79.2543 45.2455C79.4357 45.4778 79.5163 45.7433 79.5163 46.042C79.5163 46.4568 79.3349 46.8053 78.9721 47.1205C78.6496 47.4026 78.2061 47.5685 77.7224 47.5685ZM80 46.042C80 45.5442 79.7783 45.0962 79.3349 44.7146C78.8914 44.3329 78.3271 44.1504 77.6418 44.1504C77.3394 44.1504 77.0169 44.2168 76.6541 44.3661C76.2913 44.4988 76.0091 44.7311 75.7672 45.0298C75.5254 45.3285 75.4044 45.6769 75.4044 46.0254C75.4044 46.5398 75.6261 46.9878 76.0897 47.3694C76.5332 47.7345 77.0774 47.9336 77.7224 47.9336C78.3472 47.9336 78.8914 47.7511 79.3349 47.3694C79.7783 47.0044 80 46.5564 80 46.042Z" fill="black"/>
<path d="M73.6911 47.7842L71.5344 41.4623L73.3082 35.6714H69.3374C69.1157 36.4181 68.7932 37.8119 68.3497 39.886C68.2893 39.5541 67.9869 38.1437 67.3621 35.6714H63.613L65.5682 41.4623L63.613 47.7842H67.3621C67.7249 46.4734 68.0474 45.0962 68.3497 43.6526C68.5715 44.8141 68.894 46.1913 69.3374 47.7842H73.6911Z" fill="black"/>
<path d="M34.8098 39.9691H33.4795V39.0897C33.4795 38.4094 33.5198 37.9945 33.6004 37.8286C33.6609 37.6793 33.8624 37.5963 34.1849 37.5963C34.447 37.5963 34.6082 37.6959 34.6888 37.8784C34.7695 38.0609 34.8098 38.4591 34.8098 39.0897V39.9691ZM39.2844 40.3507C39.2844 39.1726 39.1232 38.26 38.8007 37.6129C38.4782 36.9658 37.8937 36.4348 37.0673 36.0532C36.261 35.6549 35.2129 35.4724 33.943 35.4724C32.9151 35.4724 31.9879 35.6383 31.222 35.9536C30.4359 36.2689 29.8715 36.7501 29.5087 37.364C29.1459 37.9779 28.9846 38.8076 28.9846 39.8695V43.3872C28.9846 44.2998 29.0652 44.9802 29.2265 45.4448C29.3877 45.926 29.6699 46.3574 30.0731 46.739C30.4762 47.1372 31.0406 47.4359 31.7662 47.6516C32.4918 47.8673 33.3182 47.9835 34.2655 47.9835C35.2532 47.9835 36.0595 47.8673 36.7045 47.635C37.3494 47.4193 37.8937 47.0709 38.3169 46.6063C38.7402 46.1417 39.0023 45.7102 39.1232 45.3286C39.2441 44.9304 39.2844 44.3496 39.2844 43.6029V42.7069H35.0315V44.3164C35.0315 44.9138 34.971 45.312 34.8702 45.5277C34.7493 45.7434 34.5276 45.843 34.1849 45.843C33.9229 45.843 33.7213 45.76 33.6205 45.6107C33.5198 45.4613 33.4593 45.0963 33.4593 44.5487V41.9271H39.2643V40.3507H39.2844Z" fill="black"/>
</g>
<defs>
<clipPath id="clip0">
<rect width="80" height="15" fill="white" transform="translate(0 33)"/>
</clipPath>
</defs>
</svg>
