<svg width="80" height="80" viewBox="0 0 80 80" fill="none" xmlns="http://www.w3.org/2000/svg">
<path d="M63.5216 34.7714C63.4346 35.7218 63.761 36.9319 64.1957 38.1207C64.848 39.8714 65.8917 41.3189 67.4784 42.3566C68.8261 43.2427 70.3264 43.4591 71.8479 43.1564C73.5866 42.8109 74.9349 41.8166 75.9562 40.3471C76.7392 39.2012 77.2608 37.9696 77.6085 36.6293C77.9349 35.3543 77.9562 34.1007 77.7392 32.8471C77.5223 31.5692 77.0649 30.3444 76.3914 29.2385C75.5221 27.8119 74.3696 26.6446 72.761 26.0618C71.9562 25.7585 71.1301 25.5641 70.2608 25.6509C68.3696 25.8668 66.8261 26.7528 65.6741 28.2437C64.2608 30.0384 63.5216 32.1127 63.5216 34.7709V34.7714ZM79.8479 34.4902C79.9562 35.8948 79.6085 37.278 79.0213 38.5744C78.2389 40.2818 77.0213 41.6002 75.3695 42.5296C73.9781 43.3075 72.5002 43.6321 70.913 43.6969C69.6522 43.7398 68.4346 43.5239 67.2608 43.113C66.3258 42.7889 65.4784 42.2703 64.6954 41.6221C63.4346 40.6064 62.5866 39.3094 62.0432 37.8185C61.8261 37.1918 61.6954 36.5435 61.6085 35.8734C61.5181 35.2509 61.4817 34.6218 61.4997 33.993C61.6304 31.6589 62.4128 29.6055 64.1088 27.8768C65.3914 26.5803 66.913 25.7805 68.6741 25.4344C70.2826 25.1103 71.913 25.1318 73.4997 25.6289C76.1519 26.4287 78.0437 28.0712 79.152 30.6218C79.6522 31.8319 79.9349 33.1069 79.8479 34.4896V34.4902ZM26.3914 54.1568C26.6522 54.1568 26.8912 53.8975 26.8912 53.6382C26.8912 53.3575 26.6522 53.1196 26.3477 53.1196H25.3045V54.1787H26.3914V54.1573V54.1568ZM25.3045 52.601H26.2176C26.5002 52.601 26.6954 52.4066 26.6954 52.1253C26.6954 51.8227 26.4784 51.5853 26.1738 51.5853H25.2826V52.601H25.304H25.3045ZM26.1738 51.0448C26.7605 51.0448 27.2608 51.4337 27.2608 52.0171C27.2608 52.4928 26.9568 52.7521 26.7392 52.7955C27.0869 52.8818 27.4565 53.163 27.4565 53.6382C27.4565 54.2864 26.9781 54.6539 26.3914 54.6539H24.7392V51.0234H26.1738V51.0448V51.0448ZM33.3258 51.0448V51.5853H31.3477V52.6439H33.0437V53.163H31.3477V54.1568H33.369V54.6759H30.761V51.0448H33.3258ZM37.2389 52.6873H38.2826C38.5653 52.6873 38.8042 52.4066 38.8042 52.1253C38.8042 51.715 38.4565 51.5853 38.1088 51.5853H37.2394V52.6873H37.2389ZM38.3045 51.0448C38.8912 51.0448 39.3914 51.5419 39.3914 52.1253C39.3914 52.5791 39.1088 52.99 38.6741 53.141L39.5434 54.6753H38.8912L38.1088 53.2059H37.2394V54.6753H36.6741V51.0448H38.3045ZM48.3477 54.6759H48.913V51.0448H48.3477V54.6759ZM53.0218 51.0448L54.1306 52.7307L54.7824 53.7678L54.761 52.5357V51.0448H55.3264V54.6759H54.7392L53.6304 52.9032L52.9781 51.9094L53 52.9466V54.6759H52.4346V51.0448H53.0218ZM43.3258 51.0448V54.1573H45.1738V54.6759H42.7392V51.0448H43.3258ZM17.913 34.4468C17.913 34.8791 17.8693 35.3114 17.913 35.7432C18.0183 36.6768 18.2677 37.5883 18.6522 38.4448C19.3696 40.0873 20.3696 41.4705 21.913 42.4214C23.1957 43.2212 24.6085 43.4157 26.0437 43.1998C27.8261 42.9185 29.217 41.8814 30.2389 40.4548C31.1957 39.1369 31.8042 37.6455 32.065 36.003C32.2826 34.7066 32.1957 33.4744 31.913 32.2209C31.6954 31.27 31.369 30.3619 30.8693 29.5193C29.9786 28.0064 28.848 26.7528 27.1738 26.0832C26.3477 25.7585 25.4778 25.5641 24.5872 25.6509C22.6085 25.8668 21.0437 26.8177 19.8693 28.4168C18.5434 30.1894 17.8261 32.1989 17.913 34.4468V34.4468ZM34.1957 34.555C34.2608 36.565 33.6304 38.4014 32.4997 40.0225C31.5216 41.4277 30.1744 42.4214 28.5653 43.0482C27.5872 43.4371 26.5866 43.6321 25.5653 43.6964C24.761 43.7398 23.9349 43.6321 23.152 43.5019C21.2389 43.1998 19.5872 42.3137 18.2613 40.9091C16.9781 39.5687 16.2176 37.9477 15.9349 36.1327C15.6914 34.6715 15.7654 33.1748 16.152 31.7452C16.5872 30.1894 17.3696 28.8277 18.5434 27.7037C19.6522 26.6446 20.9349 25.953 22.4128 25.5427C23.6741 25.1966 24.9568 25.1537 26.2389 25.2834C27.8693 25.4564 29.3909 26.0398 30.7173 27.0555C32.1306 28.136 33.1306 29.5193 33.6954 31.2052C34.1306 32.523 34.2394 33.4096 34.1957 34.555Z" fill="black"/>
<path fill-rule="evenodd" clip-rule="evenodd" d="M51.5872 26.2557H45.7173V25.8234H59.1957V26.2557H53.5435V43.113H51.5872C51.5435 37.4077 51.6304 31.9616 51.5872 26.2557V26.2557ZM0 41.1036C0.1088 40.9739 0.173867 40.8871 0.282667 40.7789C0.586667 41.1036 1.04373 41.5353 1.67413 41.9462C2.06507 42.2055 2.69547 42.6159 3.6304 42.8971C4.4784 43.1564 5.3696 43.2212 6.30453 43.113C7.04373 43.0273 7.7392 42.8109 8.32587 42.422C8.6304 42.227 9.15253 41.9028 9.5216 41.3195C10.3045 40.1087 10.1083 38.3371 9.23893 37.2132C9.08928 37.0179 8.92199 36.837 8.7392 36.6727C8.42217 36.3936 8.06257 36.1675 7.67413 36.003C6.08693 35.3334 4.1088 34.8357 2.86933 34.0364C1.5216 33.1503 0.2176 31.3348 0.434667 29.433C0.565333 28.2437 1.26133 27.2286 1.91307 26.6452C2.4128 26.2128 3.1088 25.8453 3.65173 25.6509C3.86933 25.5641 4.4784 25.3482 5.3264 25.262C6.33073 25.1644 7.3443 25.2747 8.30453 25.5861C9.71787 26.0832 10.6304 26.9259 11.0437 27.3796C10.9462 27.4547 10.8584 27.5418 10.7824 27.6389C10.2389 27.1418 8.91307 26.0184 6.91307 25.78C6.14216 25.6945 5.36228 25.7458 4.60907 25.9316C3.7392 26.148 2.76107 26.3853 2.06507 27.2934C1.97813 27.4016 1.1088 28.5684 1.4784 29.973C1.69547 30.8591 2.28267 31.3996 2.82613 31.8105C3.82613 32.5884 4.97813 33.0421 6.17387 33.4311C7.69547 33.9282 8.1088 33.993 9 34.5336C9.544 34.8791 10.0437 35.1818 10.4784 35.7437C11.6741 37.2566 11.6304 39.6555 10.6085 41.2546C10.5216 41.3843 10.152 41.9677 9.4352 42.5082C8.7824 43.0053 8 43.3295 7.15253 43.4805C6.56533 43.5887 4.7824 43.9777 2.86987 43.1778C1.76053 42.7241 1 42.0325 0.695467 41.7518C0.4128 41.5353 0.173867 41.2761 0 41.1036H0ZM41.8043 36.0464C41.2608 35.5487 40.7392 35.0302 40.1957 34.533C40.7173 34.0145 41.2389 33.4745 41.7611 32.9553L43.3696 34.4253L41.8043 36.0459V36.0464Z" fill="black"/>
</svg>
