<svg width="80" height="80" viewBox="0 0 80 80" fill="none" xmlns="http://www.w3.org/2000/svg">
<g clip-path="url(#clip0)">
<path d="M9.79882 42.1501C9.79882 44.4955 7.70185 45.1945 5.86326 45.1945C3.81549 45.1945 2.01112 44.1674 2 41.9206H5.18438C5.18438 42.3511 5.54756 42.4661 5.91117 42.4661C6.26109 42.4661 6.56738 42.3647 6.56738 42.0356C6.56738 41.7441 6.36761 41.6037 5.78284 41.5408C3.99088 41.3756 2.04706 41.0451 2.04706 38.6866C2.04663 36.8722 3.83859 35.8056 5.86326 35.8056C7.98376 35.8056 9.62214 36.7821 9.67048 38.8251H6.56696C6.55369 38.5458 6.23885 38.4073 5.92187 38.4073C5.64124 38.4073 5.27806 38.534 5.27806 38.9035C5.27806 39.2067 5.50093 39.3471 5.78241 39.371C7.50379 39.5231 9.79882 39.7396 9.79882 42.1501ZM10.0598 38.7392H11.8059V45.1809H15.0019V38.7392H16.7459V35.8056H10.0598V38.7392ZM39.1298 35.8056V38.7392H40.8747V45.1809H44.0728V38.7392H45.8177V35.8056H39.1298ZM31.7763 42.2497H28.3926V41.3516H31.7763V39.6363H28.3926V38.7392H31.7763V35.8056H25.2069V45.1809H31.7763V42.2497ZM32.169 45.1809H38.738V42.2497H35.3538V41.3516H38.738V39.6363H35.3538V38.7392H38.738V35.8056H32.169V45.1809ZM72.3117 38.7256H74.0566V45.1677H77.2538V38.7256H79V35.792H72.3117V38.7256ZM24.6915 39.2635C24.6915 36.4624 22.713 35.8202 20.6742 35.8056H17.1378V45.1809H20.3358V42.6905H20.5583L21.6012 45.1809H24.8211V44.8894L23.4864 41.9948C24.2124 41.4859 24.6915 40.6273 24.6915 39.2635V39.2635ZM20.7452 39.8776H20.2999V38.619H20.7452C21.2718 38.619 21.5186 38.8199 21.5186 39.2635C21.5186 39.718 21.2718 39.8654 20.7452 39.8776V39.8776ZM55.4872 40.0663C56.1319 39.8104 56.4822 39.1152 56.495 38.3645C56.5288 36.9717 55.5573 35.792 54.3399 35.792H49.1638V45.1682H54.3172C55.7567 45.1682 56.8578 44.057 56.9151 42.4515C56.975 41.2178 56.4604 40.4958 55.4872 40.0663V40.0663ZM52.3606 38.2979H52.959C53.5438 38.2979 53.5096 39.2771 52.959 39.2771H52.3606V38.2979V38.2979ZM53.1579 42.5942H52.3606V41.4197H53.1579C53.578 41.4197 53.7431 41.7131 53.7431 42.0074C53.7431 42.3008 53.5673 42.5942 53.1579 42.5942V42.5942ZM70.7045 35.7953H67.2845L64.3024 44.8086V45.1673H67.4269L67.7695 44.0936H70.2203L70.5625 45.1673H73.6861V44.8086L70.7045 35.7953V35.7953ZM68.5314 41.6995L68.9943 39.3692L69.4597 41.6995H68.5314ZM57.3408 45.1677H63.9097V42.2356H60.5251V41.3389H63.9097V39.6217H60.5251V38.7256H63.9097V35.792H57.3408V45.1677Z" fill="#0A3241"/>
</g>
<defs>
<clipPath id="clip0">
<rect width="77" height="13" fill="white" transform="translate(2 34)"/>
</clipPath>
</defs>
</svg>
