<svg width="80" height="80" viewBox="0 0 80 80" fill="none" xmlns="http://www.w3.org/2000/svg">
<g clip-path="url(#clip0)">
<path d="M10.5962 41.2693C10.5962 43.0734 8.55375 43.6111 6.76292 43.6111C4.76833 43.6111 3.01083 42.821 3 41.0927H6.10167C6.10167 41.4239 6.45542 41.5123 6.80958 41.5123C7.15042 41.5123 7.44875 41.4343 7.44875 41.1812C7.44875 40.9569 7.25417 40.849 6.68458 40.8006C4.93917 40.6735 3.04583 40.4193 3.04583 38.605C3.04542 37.2093 4.79083 36.3889 6.76292 36.3889C8.82833 36.3889 10.4242 37.14 10.4712 38.7116H7.44833C7.43542 38.4967 7.12875 38.3902 6.82 38.3902C6.54667 38.3902 6.19292 38.4877 6.19292 38.7719C6.19292 39.0051 6.41 39.1131 6.68417 39.1315C8.36083 39.2485 10.5962 39.415 10.5962 41.2693ZM10.8504 38.6455H12.5513V43.6006H15.6642V38.6455H17.3629V36.3889H10.8504V38.6455ZM39.1654 36.3889V38.6455H40.865V43.6006H43.98V38.6455H45.6796V36.3889H39.1654ZM32.0029 41.3459H28.7071V40.6551H32.0029V39.3356H28.7071V38.6455H32.0029V36.3889H25.6042V43.6006H32.0029V41.3459ZM32.3854 43.6006H38.7837V41.3459H35.4875V40.6551H38.7837V39.3356H35.4875V38.6455H38.7837V36.3889H32.3854V43.6006ZM71.4854 38.635H73.185V43.5905H76.2992V38.635H78V36.3784H71.4854V38.635ZM25.1021 39.0488C25.1021 36.8941 23.175 36.4001 21.1892 36.3889H17.7446V43.6006H20.8596V41.6849H21.0762L22.0921 43.6006H25.2283V43.3764L23.9283 41.1498C24.6354 40.7583 25.1021 40.0979 25.1021 39.0488V39.0488ZM21.2583 39.5212H20.8246V38.553H21.2583C21.7712 38.553 22.0117 38.7076 22.0117 39.0488C22.0117 39.3984 21.7712 39.5118 21.2583 39.5212V39.5212ZM55.0979 39.6663C55.7258 39.4695 56.0671 38.9347 56.0796 38.3573C56.1125 37.2859 55.1662 36.3784 53.9804 36.3784H48.9387V43.5909H53.9583C55.3604 43.5909 56.4329 42.7361 56.4887 41.5011C56.5471 40.5521 56.0458 39.9968 55.0979 39.6663V39.6663ZM52.0525 38.306H52.6354C53.205 38.306 53.1717 39.0593 52.6354 39.0593H52.0525V38.306V38.306ZM52.8292 41.6109H52.0525V40.7074H52.8292C53.2383 40.7074 53.3992 40.9331 53.3992 41.1595C53.3992 41.3852 53.2279 41.6109 52.8292 41.6109V41.6109ZM69.92 36.3809H66.5888L63.6842 43.3143V43.5902H66.7275L67.0612 42.7643H69.4483L69.7817 43.5902H72.8242V43.3143L69.92 36.3809V36.3809ZM67.8033 40.9226L68.2542 39.1301L68.7075 40.9226H67.8033ZM56.9033 43.5905H63.3017V41.335H60.005V40.6453H63.3017V39.3244H60.005V38.635H63.3017V36.3784H56.9033V43.5905Z" fill="white"/>
</g>
<defs>
<clipPath id="clip0">
<rect width="75" height="10" fill="white" transform="translate(3 35)"/>
</clipPath>
</defs>
</svg>
