<svg width="80" height="80" viewBox="0 0 80 80" fill="none" xmlns="http://www.w3.org/2000/svg">
<path d="M6.48167 36.7529C6.48167 36.1049 7.175 35.8557 8.32333 35.8557C9.97 35.8557 12.05 36.2378 13.6967 36.919V33.0145C11.8983 32.4663 10.1217 32.2503 8.32333 32.2503C3.925 32.2503 1 34.0114 1 36.9522C1 41.5379 9.23333 40.8069 9.23333 42.784C9.23333 43.5483 8.36667 43.7975 7.15333 43.7975C5.355 43.7975 3.05833 43.2326 1.23833 42.4683V46.4226C3.25333 47.0872 5.29 47.3697 7.15333 47.3697C11.66 47.3697 14.7583 45.6584 14.7583 42.6843C14.7367 37.7331 6.48167 38.6137 6.48167 36.7529ZM21.1283 28.9273L15.8417 29.7913L15.82 43.0997C15.82 45.5587 18.225 47.3697 21.4317 47.3697C23.2083 47.3697 24.5083 47.1205 25.2233 46.8214V43.4486C24.53 43.6646 21.1067 44.4289 21.1067 41.9699V36.0717H25.2233V32.5327H21.1067L21.1283 28.9273ZM31.9617 33.7622L31.615 32.5327H26.935V47.0706H32.3517V37.2181C33.63 35.9387 35.7967 36.1713 36.4683 36.3541V32.5327C35.775 32.3333 33.24 31.9678 31.9617 33.7622ZM37.79 32.5327H43.2283V47.0706H37.79V32.5327ZM37.79 31.27L43.2283 30.3728V27L37.79 27.8806V31.27ZM54.5383 32.2503C52.415 32.2503 51.05 33.0145 50.2917 33.5462L50.01 32.5161H45.2433V51.8889L50.66 51.0083L50.6817 46.3063C51.4617 46.7383 52.61 47.3531 54.5167 47.3531C58.395 47.3531 61.9267 44.9605 61.9267 39.6937C61.905 34.8754 58.33 32.2503 54.5383 32.2503ZM53.2383 43.6978C51.96 43.6978 51.2017 43.3489 50.6817 42.9169L50.66 36.7529C51.2233 36.271 52.0033 35.9387 53.2383 35.9387C55.21 35.9387 56.575 37.6334 56.575 39.81C56.575 42.0363 55.2317 43.6978 53.2383 43.6978ZM79 39.8598C79 35.6064 76.3133 32.2503 71.1783 32.2503C66.0217 32.2503 62.9017 35.6064 62.9017 39.8266C62.9017 44.8276 66.585 47.3531 71.8717 47.3531C74.45 47.3531 76.4 46.9045 77.8733 46.2731V42.9502C76.4 43.5151 74.71 43.864 72.565 43.864C70.4633 43.864 68.6 43.2991 68.3617 41.3385H78.9567C78.9567 41.1225 79 40.2586 79 39.8598ZM68.2967 38.2814C68.2967 36.4039 69.7917 35.6231 71.1567 35.6231C72.4783 35.6231 73.8867 36.4039 73.8867 38.2814H68.2967Z" fill="#6772E5"/>
</svg>
