<svg width="80" height="80" viewBox="0 0 80 80" fill="none" xmlns="http://www.w3.org/2000/svg">
<path d="M1.01465 28H78.9879V53H1.01465V28Z" fill="#EE2C29"/>
<path d="M53.5344 35.713H56.4513V36.2385C58.2066 35.5717 59.912 35.2523 61.294 36.6991C62.0812 36.3894 62.7977 35.9849 63.5745 35.8165C65.8352 35.3181 67.4085 36.5907 67.1267 38.7362C66.8449 40.8818 66.3988 43.0186 66.0265 45.1689H63.0701C63.2313 44.2108 63.3821 43.2818 63.5547 42.3518C63.7356 41.3192 63.928 40.2856 64.11 39.255C64.1085 39.239 64.1117 39.2229 64.1194 39.2085C64.2306 38.4285 63.9478 37.8372 63.3831 37.6872C62.7675 37.5275 62.0011 37.8469 61.7287 38.5504C61.4562 39.254 61.3543 40.0021 61.2087 40.7385C60.956 42.1195 60.7346 43.5179 60.4715 44.8999C60.4459 44.9684 60.4034 45.0303 60.3474 45.0807C60.2914 45.1311 60.2235 45.1686 60.1491 45.1902C59.2808 45.2183 58.4031 45.1989 57.4745 45.1989C57.6565 44.1286 57.8385 43.0863 58.0194 42.044C58.191 41.0395 58.3834 40.0437 58.5394 39.044C58.6298 38.4991 58.3678 37.964 57.9238 37.7578C57.4797 37.5517 56.9047 37.6824 56.4606 38.0859C55.896 38.6027 55.8658 39.2879 55.7442 39.945C55.4322 41.6869 55.139 43.4289 54.826 45.1854H51.88C52.4353 42.014 52.9802 38.8872 53.5344 35.713V35.713ZM26.9374 44.2205C26.6255 46.0234 26.3218 47.7422 26.0088 49.489H23.0525C23.8594 44.8873 24.657 40.3146 25.4639 35.7227H28.4203C28.3902 35.9568 28.3496 36.1727 28.3298 36.3604C28.935 36.1446 29.5205 35.8446 30.1455 35.7227C32.2647 35.2997 34.0201 36.3323 34.6169 38.2766C35.4738 41.0647 33.3535 44.3986 30.2973 45.0324C29.0661 45.2725 27.9565 45.0373 26.9374 44.2205ZM31.6387 40.1637C31.6491 39.0991 31.2155 38.3985 30.4949 38.1449C29.7742 37.8914 28.9413 38.173 28.3257 38.8679C28.0389 39.1839 27.824 39.5508 27.6938 39.9463C27.5637 40.3419 27.5211 40.7579 27.5686 41.1692C27.6394 41.864 27.9524 42.4456 28.7125 42.6895C29.4404 42.9247 30.0644 42.6711 30.5999 42.2114C31.2212 41.682 31.5943 40.9466 31.6387 40.1637ZM3.3457 42.8492C4.02162 42.3237 4.67779 41.8166 5.33395 41.3008C5.62616 41.6114 5.87885 41.9298 6.18145 42.1931C6.90937 42.8415 7.76519 42.8502 8.67716 42.5598C9.55482 42.2782 10.1195 41.7334 10.2807 40.8595C10.3846 40.2682 10.2006 39.7708 9.64529 39.4417C9.25222 39.2075 8.82795 39.0188 8.41407 38.8127C8.16242 38.6908 7.90037 38.5775 7.64768 38.4653C4.09234 36.8491 4.67779 33.2258 7.24109 31.5526C8.94649 30.4445 10.7122 30.5848 12.4883 31.3745C12.871 31.5439 13.2246 31.7781 13.6322 32.0036C13.0571 32.6704 12.5226 33.2897 11.9975 33.8907C11.5233 33.6971 11.0793 33.4688 10.6051 33.3371C9.48515 33.0178 8.47647 33.4494 7.96173 34.4268C7.61857 35.0839 7.76935 35.6752 8.44527 36.042C9.12119 36.4088 9.81791 36.6894 10.4938 37.0272C11.7552 37.6572 12.6776 38.5485 12.8752 39.9304C13.1871 42.0527 12.0433 43.8924 9.92918 44.7692C7.42203 45.7892 4.86081 45.0654 3.3457 42.8492V42.8492ZM15.1317 35.713H18.0985C17.7449 37.722 17.4121 39.7137 17.0586 41.6947C16.9172 42.4931 17.1626 42.8027 18.0174 42.8685C19.0864 42.9527 19.5772 42.5782 19.7425 41.6105C20.0753 39.6566 20.4288 37.7036 20.7824 35.713H23.7388C23.537 36.9052 23.3353 38.0791 23.1232 39.2627C22.9817 40.0795 22.8299 40.8963 22.6791 41.7131C22.3464 43.544 21.034 44.775 19.077 45.075C17.9664 45.2444 16.8672 45.2531 15.7972 44.8815C14.4953 44.4218 13.81 43.2857 14.0419 41.9985C14.4048 39.9295 14.7584 37.8449 15.1317 35.713V35.713ZM51.6179 40.8498H45.2747C45.1946 41.8263 45.6989 42.8027 46.456 43.0282C47.7173 43.4153 48.3725 42.6247 48.9881 41.7789C49.6848 42.0237 50.3711 42.2627 51.0564 42.5018C50.2089 44.1741 47.6768 45.8357 45.154 45.0566C43.3779 44.5118 42.5304 43.2257 42.3588 41.5534C42.0885 38.9714 44.1506 36.3517 46.8449 35.7885C49.1857 35.3046 51.2446 36.5627 51.5971 38.7885C51.698 39.4408 51.6179 40.1356 51.6179 40.8498V40.8498ZM45.543 39.1591H49.1961C48.8934 38.0946 48.2976 37.5343 47.5322 37.5256C46.6941 37.5159 45.8768 38.1827 45.543 39.1591ZM74.4724 41.7789C75.1681 42.0237 75.844 42.2627 76.521 42.4931C75.3199 44.7837 71.7885 46.2305 69.3967 44.4363C68.0241 43.4037 67.6113 41.9947 67.8837 40.4366C68.257 38.2291 69.5683 36.6333 71.8789 35.9007C74.5327 35.0559 76.9743 36.6236 77.1459 39.2346C77.1865 39.7601 77.1563 40.2856 77.1563 40.8498H70.7486C70.6384 41.7701 71.1729 42.7369 71.9195 43.0282C72.7264 43.3563 73.4231 43.0282 74.4724 41.7789ZM74.6138 39.1872C74.5629 38.3162 73.8266 37.542 73.029 37.5159C72.1618 37.4878 71.1427 38.3424 71.0533 39.1872H74.6138ZM42.7384 35.7033C42.4764 36.5298 42.2341 37.2904 41.9814 38.0888C41.873 38.0752 41.7654 38.0565 41.659 38.0327C40.2562 37.6282 39.0458 38.2949 38.7827 39.6566C38.4603 41.3192 38.1879 42.9808 37.8946 44.6434C37.8645 44.8118 37.8239 44.9812 37.7907 45.1689H34.8478C35.4031 42.0043 35.948 38.8679 36.5022 35.713H39.4285C39.4191 35.9288 39.3983 36.1359 39.3786 36.3798C40.3976 35.6656 41.5176 35.5717 42.7384 35.7033V35.7033Z" fill="white"/>
</svg>
