<?xml version="1.0" standalone="no"?>
<!DOCTYPE svg PUBLIC "-//W3C//DTD SVG 20010904//EN"
 "http://www.w3.org/TR/2001/REC-SVG-20010904/DTD/svg10.dtd">
<svg version="1.0" xmlns="http://www.w3.org/2000/svg"
 width="1179.000000pt" height="708.000000pt" viewBox="0 0 1179.000000 708.000000"
 preserveAspectRatio="xMidYMid meet">

<g transform="translate(0.000000,708.000000) scale(0.100000,-0.100000)"
fill="#000000" stroke="none">
<path d="M2448 3528 l2 -1963 3440 3 3440 2 0 1960 0 1960 -3442 0 -3443 0 3
-1962z m6812 2 l0 -1890 -3370 0 -3370 0 0 1890 0 1890 3370 0 3370 0 0 -1890z"/>
<path d="M2590 3530 l0 -1820 3300 0 3300 0 0 1820 0 1820 -3300 0 -3300 0 0
-1820z m2298 303 c-2 -666 -6 -847 -15 -851 -10 -3 -13 171 -13 847 0 751 2
851 15 851 13 0 15 -98 13 -847z m2022 -3 c0 -749 -2 -850 -15 -850 -13 0 -15
101 -15 850 0 749 2 850 15 850 13 0 15 -101 15 -850z m-3390 490 c0 -18 -7
-20 -70 -20 l-70 0 0 -510 0 -510 275 0 275 0 0 510 0 509 -67 3 c-55 2 -68 6
-71 21 -3 16 13 17 237 17 234 0 241 -1 241 -20 0 -18 -7 -20 -70 -20 l-70 0
0 -510 0 -510 70 0 70 0 0 -75 c0 -74 -13 -100 -26 -50 -3 14 -22 38 -40 55
l-35 30 -558 0 c-550 0 -559 0 -564 20 -5 19 0 20 64 20 l69 0 0 510 0 510
-65 0 c-58 0 -65 2 -65 20 0 19 7 20 235 20 228 0 235 -1 235 -20z m2070 1 c0
-15 -10 -19 -55 -24 -109 -11 -118 28 120 -517 59 -135 109 -249 113 -254 4
-8 390 746 391 767 1 4 -26 7 -59 7 -53 0 -60 2 -60 20 0 19 7 20 235 20 226
0 235 -1 235 -20 0 -16 -8 -19 -62 -22 l-62 -3 -253 -500 c-139 -275 -253
-503 -253 -507 0 -5 27 -8 60 -8 57 0 60 -1 60 -25 l0 -25 -235 0 -235 0 0 25
c0 24 2 25 63 25 l63 0 43 89 c30 59 42 95 37 107 -4 11 -84 194 -178 408
-162 367 -174 389 -205 402 -18 8 -48 14 -68 14 -28 0 -35 4 -35 20 0 19 7 20
170 20 159 0 170 -1 170 -19z m2243 -78 c20 -54 84 -228 142 -388 59 -159 110
-293 113 -297 4 -4 70 169 148 385 l141 392 176 3 c172 2 177 2 177 -18 0 -18
-6 -20 -65 -20 l-65 0 0 -510 0 -510 65 0 c58 0 65 -2 65 -20 0 -19 -7 -20
-235 -20 -228 0 -235 1 -235 20 0 18 7 20 70 20 l70 0 -1 478 c0 404 -2 472
-13 442 -8 -19 -71 -192 -140 -385 -70 -192 -142 -390 -160 -440 l-33 -90 -39
-3 -39 -3 -175 466 -175 466 -3 -429 c-1 -267 2 -440 8 -456 11 -31 45 -46
101 -46 32 0 39 -3 39 -20 0 -19 -7 -20 -165 -20 -155 0 -165 1 -165 19 0 15
10 19 47 24 87 10 83 -19 83 533 l0 484 -65 0 c-58 0 -65 2 -65 20 0 19 7 20
178 20 l179 0 36 -97z m-4343 -1898 c0 -11 -11 -15 -40 -15 l-40 0 0 -90 c0
-73 -3 -90 -15 -90 -12 0 -15 17 -15 90 l0 90 -45 0 c-33 0 -45 4 -45 15 0 12
18 15 100 15 82 0 100 -3 100 -15z m422 -2 c19 -17 24 -43 8 -43 -5 0 -19 9
-30 20 -24 24 -72 26 -94 4 -32 -31 -20 -41 60 -54 31 -5 62 -15 70 -21 20
-17 17 -56 -6 -79 -39 -39 -170 -19 -170 26 0 20 16 18 40 -6 24 -24 82 -27
104 -4 31 31 13 48 -59 59 -80 11 -108 52 -65 95 26 26 114 28 142 3z m338
-62 c0 -71 2 -82 22 -95 12 -9 32 -16 43 -16 11 0 31 7 43 16 20 13 22 24 22
95 0 64 3 79 15 79 12 0 15 -16 15 -80 0 -73 -3 -83 -25 -105 -18 -19 -35 -25
-70 -25 -35 0 -52 6 -70 25 -22 22 -25 32 -25 105 0 64 3 80 15 80 12 0 15
-15 15 -79z m546 -13 l47 -93 46 93 c37 76 50 92 68 92 22 0 23 -2 23 -105 0
-85 -3 -105 -15 -105 -11 0 -15 18 -17 85 l-3 86 -43 -86 c-29 -57 -49 -85
-60 -85 -11 1 -32 32 -62 93 l-45 92 -3 -92 c-2 -74 -6 -93 -17 -93 -12 0 -15
20 -15 105 l0 105 25 0 c21 0 31 -13 71 -92z m614 -13 l0 -105 -105 0 -105 0
0 105 0 105 105 0 105 0 0 -105z m291 14 l45 -92 44 92 c38 80 47 91 70 91
l26 0 -3 -102 c-1 -77 -5 -103 -15 -103 -9 0 -14 24 -18 83 l-5 83 -42 -85
c-25 -50 -49 -86 -58 -86 -8 0 -33 38 -60 93 l-45 92 0 -92 c0 -76 -3 -93 -15
-93 -12 0 -15 18 -15 105 0 103 1 105 23 105 18 0 31 -16 68 -91z m650 81 c24
-13 49 -61 49 -95 0 -34 -25 -82 -49 -95 -11 -5 -43 -10 -71 -10 -44 0 -56 5
-81 29 -24 24 -29 38 -29 76 0 38 5 52 29 76 25 24 37 29 81 29 28 0 60 -5 71
-10z m489 -10 c11 -11 20 -24 20 -30 0 -17 -25 -11 -43 11 -22 25 -84 23 -101
-3 -15 -25 0 -36 63 -48 66 -12 81 -24 81 -61 0 -39 -33 -59 -97 -59 -40 0
-58 5 -73 20 -39 39 -17 55 27 20 42 -33 113 -21 113 20 0 20 -9 24 -75 35
-57 10 -75 22 -75 52 0 44 26 63 87 63 40 0 58 -5 73 -20z m482 3 c19 -17 25
-43 10 -43 -5 0 -17 9 -27 20 -23 26 -75 26 -106 1 -19 -16 -24 -28 -23 -66 1
-54 17 -73 66 -81 28 -5 40 -2 57 15 22 22 51 28 51 12 0 -5 -12 -19 -26 -30
-29 -23 -101 -29 -135 -11 -24 13 -49 61 -49 95 0 32 24 81 47 94 29 17 114
13 135 -6z m499 -12 c24 -24 29 -38 29 -76 0 -38 -5 -52 -29 -76 -25 -25 -37
-29 -85 -29 -76 0 -107 26 -114 98 -4 47 -2 54 26 82 27 26 37 30 87 30 49 0
60 -4 86 -29z m345 -56 c16 -47 31 -85 34 -85 3 0 18 38 34 85 23 73 30 85 50
85 19 0 26 -12 50 -85 15 -47 31 -83 35 -81 4 3 18 39 31 82 21 67 41 96 55
82 3 -3 -11 -50 -31 -106 -31 -86 -40 -102 -58 -102 -19 0 -26 14 -52 92 l-30
92 -33 -93 c-28 -79 -36 -92 -54 -89 -15 2 -27 24 -53 93 -37 102 -40 115 -20
115 10 0 25 -31 42 -85z"/>
<path d="M6225 2315 c-47 -46 -26 -127 36 -140 65 -15 119 38 104 104 -13 60
-95 82 -140 36z"/>
<path d="M7679 2321 c-19 -15 -24 -29 -24 -65 0 -55 18 -76 71 -83 59 -8 89
20 89 82 0 56 -28 85 -80 85 -18 0 -43 -9 -56 -19z"/>
</g>
</svg>
