<svg width="80" height="80" viewBox="0 0 80 80" fill="none" xmlns="http://www.w3.org/2000/svg">
<path d="M77.3416 35.8867L75.5444 41.0995C75.5444 41.1719 75.4823 41.2443 75.4823 41.3167L75.4203 41.4615L75.3583 41.3167C75.3583 41.2443 75.2963 41.1719 75.2963 41.0995L73.499 35.8867H71.144L74.2426 44.8643L72.9412 48.2671H75.2963L79.6346 35.8867H77.3416Z" fill="white"/>
<path d="M59.988 36.3937C59.5542 36.0316 59.0584 35.8145 58.4385 35.742C57.3848 35.5972 56.3931 36.0316 55.7732 36.9005V35.8868H53.6663V44.8645H55.7732V40.1584C55.7732 39.0724 55.9593 38.8553 56.0834 38.5657C56.3311 38.0589 56.8269 37.7693 57.3848 37.8416C57.9427 37.8416 58.5005 38.1313 58.7482 38.638C58.9343 39.0001 58.9343 39.4345 58.9343 39.7241C58.9343 40.5205 58.9343 44.8645 58.9343 44.8645H61.0417V39.4345C61.0417 37.9865 60.6695 37.0453 59.988 36.3937Z" fill="white"/>
<path d="M49.6376 35.9592C48.5844 35.5248 47.4687 35.5972 46.415 36.1764C45.6714 36.5384 45.1136 37.19 44.6798 37.9864C44.3076 38.7104 44.1219 39.5068 44.1219 40.448C44.1219 41.3892 44.3076 42.1856 44.6798 42.9096C45.0515 43.6336 45.5474 44.1404 46.1673 44.5748C46.7867 44.9368 47.5307 45.154 48.2122 45.154C48.5844 45.154 48.9561 45.0816 49.3279 45.0092C49.6376 44.9368 49.9478 44.792 50.2575 44.5748C50.8774 44.1404 51.3733 43.6336 51.745 42.982C52.1168 42.258 52.3029 41.4616 52.3029 40.5204C52.2408 38.3484 51.2492 36.6832 49.6376 35.9592ZM50.1955 40.448C50.1955 41.2444 49.9478 41.896 49.514 42.3304C49.2038 42.6924 48.77 42.8372 48.1502 42.8372C47.5927 42.8372 47.1585 42.62 46.7867 42.3304C46.3529 41.896 46.1673 41.2444 46.1052 40.448C46.1052 39.5792 46.3529 38.7828 46.9108 38.276C47.2205 37.9864 47.5927 37.8416 48.0885 37.8416C48.5844 37.8416 48.9561 37.9864 49.2659 38.276C49.9478 38.7828 50.2575 39.5792 50.1955 40.448Z" fill="white"/>
<path d="M41.7047 36.3933C41.3328 36.0313 40.775 35.8141 40.1552 35.7417C40.0313 35.7417 39.9073 35.7417 39.7834 35.7417C38.9157 35.7417 38.234 36.1761 37.6142 37.045L37.4902 37.1897H37.2423C37.0564 36.9002 36.8704 36.6105 36.6225 36.4657C36.2506 36.0313 35.7549 35.8141 35.135 35.7417C34.1434 35.5969 33.3377 35.9589 32.656 36.8277V35.8865H30.5487V44.8641H32.656V40.1581V40.0857C32.656 39.0721 32.7799 38.8549 32.9039 38.5654C33.1518 38.0585 33.6476 37.7689 34.1434 37.7689C34.6393 37.7689 35.1351 38.0585 35.383 38.5654C35.5689 38.9273 35.5689 39.3617 35.5689 39.7961V44.7917H37.7381V40.0133C37.7381 39.1445 37.8621 38.7825 37.986 38.4929C38.2339 37.9861 38.7297 37.7689 39.2256 37.7689C39.7214 37.7689 40.1552 38.1309 40.4032 38.5654C40.5271 38.8549 40.5891 39.2169 40.5891 39.5065C40.5891 39.6513 40.5891 39.7237 40.5891 39.8685V44.8641H42.6963V39.4341C42.6963 38.9273 42.6343 38.4929 42.5724 38.0585C42.4484 37.3345 42.1385 36.7554 41.7047 36.3933Z" fill="white"/>
<path d="M69.0366 42.1132C68.7268 42.4752 67.9829 43.1268 66.9912 43.1992C66.1856 43.1992 65.5037 42.982 65.0699 42.4028C64.8843 42.1132 64.6982 41.8236 64.6361 41.4616H70.524V41.3892C70.5861 41.0272 70.5861 40.6652 70.5861 40.3756C70.5861 40.086 70.524 39.6516 70.4 39.0724C70.1523 38.0588 69.6564 37.2624 68.9745 36.6108C68.231 35.9592 67.487 35.742 67.3014 35.742C65.7518 35.4524 64.0162 36.2488 63.1486 37.914C62.5287 39.0724 62.5287 40.2308 62.5908 40.5928C62.5908 41.0272 62.6528 42.4028 63.5824 43.5612C64.6361 44.9368 66.1856 45.0092 66.6815 45.0816C68.7889 45.154 70.2143 43.6336 70.524 43.2716L69.0366 42.1132ZM65.3801 38.3484C65.6898 38.0588 66.0616 37.914 66.5574 37.914C67.0532 37.914 67.425 38.0588 67.7352 38.3484C68.0449 38.638 68.293 39 68.4167 39.5068H64.6361C64.8222 39 65.0699 38.638 65.3801 38.3484Z" fill="white"/>
<path d="M15.9223 30.0222C11.1501 30.0222 7.36945 34.511 7.36945 40.0134C7.36945 45.5158 11.212 50.0046 15.9223 50.0046C20.6326 50.0046 24.4752 45.5158 24.4752 40.0134C24.5371 34.511 20.6326 30.0222 15.9223 30.0222ZM15.9223 43.7058C14.1869 43.7058 12.6995 42.0406 12.6995 40.0134C12.6995 37.9862 14.125 36.321 15.9223 36.321C17.7196 36.321 19.1451 37.9862 19.1451 40.0134C19.0832 42.0406 17.7196 43.7058 15.9223 43.7058Z" fill="#8B3FFD"/>
<path d="M7.36927 32.9907V47.5431H4.33235L0.427795 32.9907H7.36927Z" fill="#8B3FFD"/>
</svg>
